<svg width="61" height="60" viewBox="0 0 61 60" fill="none" xmlns="http://www.w3.org/2000/svg">
<g opacity="0.3">
<path d="M54.5775 43.645C54.2445 46.2957 53.0383 48.7601 51.1492 50.6492C49.2601 52.5383 46.7957 53.7445 44.145 54.0775C40.37 54.5775 35.645 55 30.5 55C25.3525 55 20.63 54.575 16.855 54.0775C14.2043 53.7445 11.7399 52.5383 9.85078 50.6492C7.96169 48.7601 6.75547 46.2957 6.4225 43.645C5.9225 39.87 5.5 35.145 5.5 30C5.5 24.8525 5.925 20.13 6.4225 16.355C6.75547 13.7043 7.96169 11.2399 9.85078 9.35078C11.7399 7.46169 14.2043 6.25547 16.855 5.9225C20.63 5.4225 25.355 5 30.5 5C35.6475 5 40.37 5.425 44.145 5.9225C46.7957 6.25547 49.2601 7.46169 51.1492 9.35078C53.0383 11.2399 54.2445 13.7043 54.5775 16.355C55.0775 20.13 55.5 24.855 55.5 30C55.5 35.1475 55.075 39.87 54.5775 43.645Z" fill="white"/>
<path d="M24.9825 40.5175C24.5139 40.0487 24.2506 39.413 24.2506 38.75C24.2506 38.0871 24.5139 37.4514 24.9825 36.9825L31.965 30L24.9825 23.0175C24.5272 22.546 24.2752 21.9145 24.2809 21.259C24.2866 20.6036 24.5495 19.9765 25.013 19.513C25.4765 19.0495 26.1036 18.7866 26.759 18.7809C27.4145 18.7752 28.046 19.0272 28.5175 19.4825L37.2675 28.2325C37.7362 28.7014 37.9995 29.3371 37.9995 30C37.9995 30.663 37.7362 31.2987 37.2675 31.7675L28.5175 40.5175C28.0487 40.9862 27.413 41.2495 26.75 41.2495C26.0871 41.2495 25.4514 40.9862 24.9825 40.5175Z" fill="#12131A"/>
</g>
</svg>
