<svg width="61" height="60" viewBox="0 0 61 60" fill="none" xmlns="http://www.w3.org/2000/svg">
<g opacity="0.3">
<path d="M6.4225 16.355C6.75547 13.7043 7.96169 11.2399 9.85078 9.35078C11.7399 7.46169 14.2043 6.25547 16.855 5.9225C20.63 5.4225 25.355 5 30.5 5C35.6475 5 40.37 5.425 44.145 5.9225C46.7957 6.25547 49.2601 7.46169 51.1492 9.35078C53.0383 11.2399 54.2445 13.7043 54.5775 16.355C55.0775 20.13 55.5 24.855 55.5 30C55.5 35.1475 55.075 39.87 54.5775 43.645C54.2445 46.2957 53.0383 48.7601 51.1492 50.6492C49.2601 52.5383 46.7957 53.7445 44.145 54.0775C40.37 54.5775 35.645 55 30.5 55C25.3525 55 20.63 54.575 16.855 54.0775C14.2043 53.7445 11.7399 52.5383 9.85078 50.6492C7.96169 48.7601 6.75547 46.2957 6.4225 43.645C5.9225 39.87 5.5 35.145 5.5 30C5.5 24.8525 5.925 20.13 6.4225 16.355Z" fill="white"/>
<path d="M36.0175 19.4825C36.4862 19.9513 36.7495 20.587 36.7495 21.25C36.7495 21.9129 36.4862 22.5486 36.0175 23.0175L29.035 30L36.0175 36.9825C36.4729 37.454 36.7249 38.0855 36.7192 38.741C36.7135 39.3964 36.4506 40.0235 35.9871 40.487C35.5235 40.9505 34.8965 41.2134 34.241 41.2191C33.5855 41.2248 32.954 40.9728 32.4825 40.5175L23.7325 31.7675C23.2638 31.2986 23.0005 30.6629 23.0005 30C23.0005 29.337 23.2638 28.7013 23.7325 28.2325L32.4825 19.4825C32.9513 19.0138 33.5871 18.7505 34.25 18.7505C34.9129 18.7505 35.5487 19.0138 36.0175 19.4825Z" fill="#12131A"/>
</g>
</svg>
