<svg width="24" height="24" viewBox="0 0 24 24" fill="none" xmlns="http://www.w3.org/2000/svg">
<rect x="2.5" y="2.5" width="19" height="19" rx="9.5" stroke="white"/>
<path d="M9.41715 6.26329L10.0634 6.05689C10.6682 5.86368 11.315 6.17629 11.5742 6.7871L12.0902 8.00391C12.3152 8.53372 12.1904 9.15712 11.7818 9.54473L10.646 10.6235C10.716 11.2691 10.9328 11.9046 11.2964 12.5298C11.6421 13.1345 12.1054 13.6639 12.659 14.0868L14.0246 13.6308C14.5418 13.4586 15.1052 13.6572 15.4226 14.1234L16.1618 15.2094C16.5314 15.7518 16.4648 16.4994 16.007 16.959L15.5162 17.4516C15.0278 17.9418 14.3306 18.12 13.685 17.9184C12.1618 17.4432 10.7612 16.0326 9.48315 13.6866C8.20353 11.3365 7.75193 9.34293 8.12833 7.70571C8.28673 7.0169 8.77754 6.46789 9.41835 6.26329" fill="white"/>
</svg>
