<svg width="667" height="73" viewBox="0 0 667 73" fill="none" xmlns="http://www.w3.org/2000/svg">
<g filter="url(#filter0_d_707_12939)">
<rect x="6" y="6" width="655" height="61" rx="30" fill="white"/>
<path d="M630.414 35.9919C631.17 35.6469 631.172 35.0889 630.414 34.7432L609.88 25.3749C609.124 25.0299 608.511 25.4259 608.509 26.2457L608.5 33.0077L625.131 35.3672L608.5 37.7267L608.509 44.4894C608.511 45.3152 609.122 45.7059 609.88 45.3602L630.414 35.9919Z" fill="#6D2EF5"/>
<path d="M36.84 41V33.16H38.1V41H36.84ZM36.84 32.18V31.06H38.1V32.18H36.84ZM39.7795 41V33.16H45.5195L46.7795 34.42V41H45.5195V34.28H41.0395V41H39.7795ZM48.4611 42.96V33.16H54.2711L55.5311 34.42V39.74L54.2711 41H49.7211V42.96H48.4611ZM54.2711 34.28H49.7211V39.88H54.2711V34.28ZM64.1427 33.16V41H58.4027L57.1427 39.74V33.16H58.4027V39.88H62.8827V33.16H64.1427ZM65.8244 31.9L67.0844 31.2V33.44H70.7244V34.56H67.0844V39.88H70.7244V41H67.0844L65.8244 39.74V31.9ZM71.77 39.74V34.42L73.03 33.16H78.49V37.5H73.03V39.88H78.21V41H73.03L71.77 39.74ZM73.03 36.52L77.286 36.38V34.28H73.03V36.52ZM87.0978 31.2V41H81.2878L80.0278 39.74V34.42L81.2878 33.16H85.8378V31.2H87.0978ZM81.2878 39.88H85.8378V34.28H81.2878V39.88ZM92.4162 31.9L93.6762 31.2V33.44H97.3162V34.56H93.6762V39.88H97.3162V41H93.6762L92.4162 39.74V31.9ZM98.3618 39.74V34.42L99.6218 33.16H105.082V37.5H99.6218V39.88H104.802V41H99.6218L98.3618 39.74ZM99.6218 36.52L103.878 36.38V34.28H99.6218V36.52ZM106.2 41L108.44 36.8L106.41 33.16H107.824L109.56 36.38H110.96L112.696 33.16H114.11L112.08 36.8L114.32 41H112.906L111.1 37.5H109.42L107.614 41H106.2ZM115.508 31.9L116.768 31.2V33.44H120.408V34.56H116.768V39.88H120.408V41H116.768L115.508 39.74V31.9ZM121.944 41V39.6H123.26V41L122.14 42.96H121.132L122.266 41H121.944Z" fill="#22116E"/>
</g>
<defs>
<filter id="filter0_d_707_12939" x="0" y="0" width="667" height="73" filterUnits="userSpaceOnUse" color-interpolation-filters="sRGB">
<feFlood flood-opacity="0" result="BackgroundImageFix"/>
<feColorMatrix in="SourceAlpha" type="matrix" values="0 0 0 0 0 0 0 0 0 0 0 0 0 0 0 0 0 0 127 0" result="hardAlpha"/>
<feMorphology radius="6" operator="dilate" in="SourceAlpha" result="effect1_dropShadow_707_12939"/>
<feOffset/>
<feComposite in2="hardAlpha" operator="out"/>
<feColorMatrix type="matrix" values="0 0 0 0 0.427451 0 0 0 0 0.180392 0 0 0 0 0.960784 0 0 0 0.59 0"/>
<feBlend mode="normal" in2="BackgroundImageFix" result="effect1_dropShadow_707_12939"/>
<feBlend mode="normal" in="SourceGraphic" in2="effect1_dropShadow_707_12939" result="shape"/>
</filter>
</defs>
</svg>
