<svg width="31" height="30" viewBox="0 0 31 30" fill="none" xmlns="http://www.w3.org/2000/svg">
<path d="M18.0063 2.50379C20.2938 2.50269 22.5125 3.28587 24.2924 4.72269C26.0723 6.15952 27.3058 8.16313 27.7871 10.3994C28.2685 12.6356 27.9687 14.9693 26.9376 17.0112C25.9066 19.0531 24.2066 20.6798 22.1213 21.62C21.4548 23.0937 20.4407 24.3836 19.1661 25.3793C17.8916 26.375 16.3945 27.0467 14.8033 27.3367C13.2122 27.6268 11.5744 27.5265 10.0305 27.0446C8.48659 26.5627 7.0826 25.7136 5.93894 24.5699C4.79529 23.4262 3.94609 22.0222 3.4642 20.4783C2.9823 18.9344 2.88208 17.2966 3.17213 15.7055C3.46218 14.1143 4.13384 12.6173 5.12952 11.3427C6.12519 10.0681 7.41516 9.05409 8.8888 8.38754C9.6811 6.63336 10.9628 5.14512 12.5801 4.10144C14.1974 3.05777 16.0815 2.50302 18.0063 2.50379ZM13.0063 10.0038C11.0172 10.0038 9.10952 10.794 7.703 12.2005C6.29648 13.607 5.5063 15.5147 5.5063 17.5038C5.5063 19.4929 6.29648 21.4006 7.703 22.8071C9.10952 24.2136 11.0172 25.0038 13.0063 25.0038C14.9954 25.0038 16.9031 24.2136 18.3096 22.8071C19.7161 21.4006 20.5063 19.4929 20.5063 17.5038C20.5063 15.5147 19.7161 13.607 18.3096 12.2005C16.9031 10.794 14.9954 10.0038 13.0063 10.0038ZM14.2563 11.2538V12.5038H16.7563V15.0038H11.7563C11.6001 15.0035 11.4495 15.0617 11.3341 15.1669C11.2187 15.2721 11.1468 15.4168 11.1327 15.5723C11.1186 15.7279 11.1632 15.883 11.2578 16.0073C11.3524 16.1316 11.4901 16.216 11.6438 16.2438L11.7563 16.2538H14.2563C15.0851 16.2538 15.88 16.583 16.466 17.1691C17.0521 17.7551 17.3813 18.55 17.3813 19.3788C17.3813 20.2076 17.0521 21.0024 16.466 21.5885C15.88 22.1745 15.0851 22.5038 14.2563 22.5038V23.7538H11.7563V22.5038H9.2563V20.0038H14.2563C14.4125 20.0041 14.5631 19.9459 14.6785 19.8407C14.7939 19.7354 14.8658 19.5908 14.8799 19.4353C14.894 19.2797 14.8494 19.1245 14.7548 19.0002C14.6602 18.876 14.5225 18.7916 14.3688 18.7638L14.2563 18.7538H11.7563C10.9275 18.7538 10.1326 18.4245 9.54659 17.8385C8.96054 17.2524 8.6313 16.4576 8.6313 15.6288C8.6313 14.8 8.96054 14.0051 9.54659 13.4191C10.1326 12.833 10.9275 12.5038 11.7563 12.5038V11.2538H14.2563ZM18.0063 5.00379C16.9471 5.00356 15.8999 5.22768 14.9336 5.66138C13.9673 6.09508 13.1039 6.72853 12.4001 7.52003C13.8129 7.43427 15.2278 7.6494 16.5513 8.15122C17.8748 8.65303 19.0767 9.43009 20.0775 10.431C21.0783 11.4319 21.8552 12.6339 22.3569 13.9575C22.8585 15.281 23.0735 16.696 22.9876 18.1088C24.1241 17.0983 24.9266 15.7662 25.2886 14.2892C25.6506 12.8121 25.555 11.2599 25.0146 9.83844C24.4741 8.41695 23.5143 7.19333 22.2625 6.32989C21.0106 5.46644 19.5258 5.00396 18.0051 5.00379" fill="black"/>
</svg>
