<svg width="30" height="30" viewBox="0 0 30 30" fill="none" xmlns="http://www.w3.org/2000/svg">
<rect width="30" height="30" rx="2" fill="#C9ACFF"/>
<path d="M6 7.8C6 7.32261 6.18964 6.86477 6.52721 6.52721C6.86477 6.18964 7.32261 6 7.8 6H16.8C17.2774 6 17.7352 6.18964 18.0728 6.52721C18.4104 6.86477 18.6 7.32261 18.6 7.8V11.4H22.2C22.6774 11.4 23.1352 11.5896 23.4728 11.9272C23.8104 12.2648 24 12.7226 24 13.2V22.2C24 22.6774 23.8104 23.1352 23.4728 23.4728C23.1352 23.8104 22.6774 24 22.2 24H13.2C12.7226 24 12.2648 23.8104 11.9272 23.4728C11.5896 23.1352 11.4 22.6774 11.4 22.2V18.6H7.8C7.32261 18.6 6.86477 18.4104 6.52721 18.0728C6.18964 17.7352 6 17.2774 6 16.8V7.8ZM13.2 18.6V22.2H22.2V13.2H18.6V16.8C18.6 17.2774 18.4104 17.7352 18.0728 18.0728C17.7352 18.4104 17.2774 18.6 16.8 18.6H13.2ZM16.8 16.8V7.8H7.8V16.8H16.8Z" fill="black"/>
</svg>
