<svg width="31" height="30" viewBox="0 0 31 30" fill="none" xmlns="http://www.w3.org/2000/svg">
<path d="M8.13733 26.907C8.13733 26.907 25.8231 28.5297 22.2758 18.2189C21.7506 16.9655 20.9254 16.2608 18.9642 15.7225C17.6567 15.3636 16.1697 15.4859 14.5032 16.0892C14.2085 16.2062 9.40998 18.1877 11.6096 21.8465C13.879 25.6172 8.13733 26.907 8.13733 26.907Z" fill="black"/>
<path d="M15.8971 14.5924C16.902 14.014 18.0945 13.9252 19.472 14.3315C20.8523 14.735 21.777 15.4452 22.2519 16.4568L25.2001 7.02735L19.6625 5.30826C18.423 8.40747 17.167 11.504 15.8971 14.5924ZM4.67559 25.8163H10.227C10.3457 25.8055 10.4561 25.7813 10.5583 25.7463C10.7073 25.6952 10.873 25.7114 11.0082 25.7921C11.1435 25.8728 11.2318 26.01 11.2512 26.1633C11.276 26.3759 11.207 26.5884 11.0634 26.7498C10.9171 26.9085 10.7073 27 10.4893 27H4.67559C4.34157 27 4.06828 26.7364 4.06828 26.4081C4.06828 26.0799 4.34157 25.8163 4.67559 25.8163ZM25.8019 23.8174L26.5583 22.4561L27.9634 21.6948L26.5583 20.9415L25.8019 19.5748L25.0289 20.9415L23.6487 21.6948L25.0289 22.4561L25.8019 23.8174ZM14.0034 7.46318L14.7929 6.02119L16.2808 5.23293L14.7929 4.43123L14.0034 3L13.1808 4.43123L11.7011 5.23293L13.1808 6.02119L14.0034 7.46318ZM8.27256 10.5731L6.76807 13.2903L3.96338 14.7754L6.76531 16.2658L8.27256 18.983L9.80189 16.2658L12.59 14.7754L9.80189 13.2903L8.27256 10.5731Z" fill="black"/>
</svg>
