<svg width="20" height="20" viewBox="0 0 20 20" fill="none" xmlns="http://www.w3.org/2000/svg">
<path fill-rule="evenodd" clip-rule="evenodd" d="M10 2V5.7905C10 6.1085 10 6.41825 10.0402 6.67325C10.0849 6.9605 10.1951 7.28825 10.5128 7.5605C10.8304 7.83275 11.2128 7.92725 11.5487 7.9655C11.8463 8 12.2067 8 12.5778 8H17V12.5C17 14.621 17 15.6823 16.2309 16.3407C15.4626 17 14.2245 17 11.75 17H8.25C5.7755 17 4.53738 17 3.76913 16.3407C3 15.6823 3 14.621 3 12.5V6.5C3 4.379 3 3.31775 3.76913 2.65925C4.53738 2 5.7755 2 8.25 2H10ZM11.75 2.00375V5.75C11.75 6.125 11.7517 6.3305 11.7745 6.473V6.47825L11.7815 6.479C11.9478 6.4985 12.1875 6.5 12.625 6.5H16.9956C16.9869 6.191 16.958 5.987 16.867 5.79725C16.734 5.522 16.4811 5.3045 15.9745 4.871L13.6505 2.879C13.1448 2.4455 12.8919 2.228 12.5699 2.114C12.3485 2.03525 12.1105 2.01125 11.75 2.00375ZM6.5 10.25C6.5 10.0511 6.59219 9.86032 6.75628 9.71967C6.92038 9.57902 7.14294 9.5 7.375 9.5H12.625C12.8571 9.5 13.0796 9.57902 13.2437 9.71967C13.4078 9.86032 13.5 10.0511 13.5 10.25C13.5 10.4489 13.4078 10.6397 13.2437 10.7803C13.0796 10.921 12.8571 11 12.625 11H7.375C7.14294 11 6.92038 10.921 6.75628 10.7803C6.59219 10.6397 6.5 10.4489 6.5 10.25ZM7.375 12.5C7.14294 12.5 6.92038 12.579 6.75628 12.7197C6.59219 12.8603 6.5 13.0511 6.5 13.25C6.5 13.4489 6.59219 13.6397 6.75628 13.7803C6.92038 13.921 7.14294 14 7.375 14H10.875C11.1071 14 11.3296 13.921 11.4937 13.7803C11.6578 13.6397 11.75 13.4489 11.75 13.25C11.75 13.0511 11.6578 12.8603 11.4937 12.7197C11.3296 12.579 11.1071 12.5 10.875 12.5H7.375Z" fill="white"/>
</svg>
