<svg width="20" height="20" viewBox="0 0 20 20" fill="none" xmlns="http://www.w3.org/2000/svg">
<path d="M8.6864 10.4899C9.50127 10.9602 9.90869 11.1954 10.3562 11.1958C10.8036 11.1962 11.2115 10.9617 12.0272 10.4928L17.2268 7.50394C17.4615 7.36902 17.6062 7.11891 17.6062 6.84816C17.6062 6.5774 17.4615 6.3273 17.2268 6.19238L12.0253 3.2024C11.2105 2.73402 10.803 2.49983 10.356 2.5C9.90901 2.50017 9.50179 2.73468 8.68734 3.2037L4.2158 5.7787C4.18265 5.79779 4.16609 5.80735 4.15064 5.81639C2.6232 6.71055 1.67949 8.343 1.66688 10.1129C1.66675 10.1308 1.66675 10.1499 1.66675 10.1881C1.66675 10.2263 1.66675 10.2454 1.66688 10.2633C1.67947 12.0312 2.62106 13.6621 4.14578 14.557C4.16119 14.566 4.17775 14.5756 4.21083 14.5947L7.01179 16.2119C8.6439 17.1542 9.45994 17.6254 10.3561 17.6257C11.2523 17.626 12.0686 17.1554 13.7014 16.2141L16.6582 14.5096C17.4757 14.0383 17.8845 13.8027 18.109 13.4142C18.3334 13.0257 18.3334 12.5539 18.3334 11.6102V9.7872C18.3334 9.52542 18.1916 9.28417 17.9629 9.15678C17.7416 9.03352 17.4719 9.03535 17.2522 9.1616L11.1893 12.6468C10.7825 12.8806 10.5791 12.9975 10.3559 12.9976C10.1327 12.9976 9.92924 12.8808 9.52231 12.6473L5.41877 10.2918C5.21322 10.1738 5.11044 10.1147 5.02788 10.1041C4.83968 10.0798 4.65872 10.1852 4.58702 10.3609C4.55559 10.438 4.55622 10.5565 4.55749 10.7935C4.55843 10.968 4.5589 11.0552 4.5752 11.1355C4.61174 11.3152 4.70627 11.4779 4.84432 11.5987C4.90596 11.6526 4.9815 11.6962 5.13265 11.7834L9.52 14.3156C9.92799 14.5511 10.132 14.6688 10.356 14.6689C10.58 14.6689 10.784 14.5513 11.1921 14.3161L16.5697 11.2162C16.7091 11.1358 16.7789 11.0957 16.8311 11.1259C16.8834 11.1561 16.8834 11.2365 16.8834 11.3974V12.2243C16.8834 12.4602 16.8834 12.5782 16.8272 12.6753C16.7711 12.7724 16.6689 12.8313 16.4645 12.9492L12.0291 15.5059C11.2125 15.9766 10.8042 16.212 10.3561 16.2118C9.90789 16.2115 9.49981 15.9758 8.68369 15.5044L4.53393 13.1072C4.52075 13.0996 4.51416 13.0958 4.50801 13.0922C3.63792 12.5838 3.10103 11.6536 3.09599 10.6459C3.09596 10.6388 3.09596 10.6312 3.09596 10.6159V9.85691C3.09596 9.30058 3.39226 8.78636 3.87357 8.50738C4.29887 8.26087 4.82348 8.26037 5.24924 8.5061L8.6864 10.4899Z" fill="white"/>
<path d="M8.6864 10.4899C9.50127 10.9602 9.90869 11.1954 10.3562 11.1958C10.8036 11.1962 11.2115 10.9617 12.0272 10.4928L17.2268 7.50394C17.4615 7.36902 17.6062 7.11891 17.6062 6.84816C17.6062 6.5774 17.4615 6.3273 17.2268 6.19238L12.0253 3.2024C11.2105 2.73402 10.803 2.49983 10.356 2.5C9.90901 2.50017 9.50179 2.73468 8.68734 3.2037L4.2158 5.7787C4.18265 5.79779 4.16609 5.80735 4.15064 5.81639C2.6232 6.71055 1.67949 8.343 1.66688 10.1129C1.66675 10.1308 1.66675 10.1499 1.66675 10.1881C1.66675 10.2263 1.66675 10.2454 1.66688 10.2633C1.67947 12.0312 2.62106 13.6621 4.14578 14.557C4.16119 14.566 4.17775 14.5756 4.21083 14.5947L7.01179 16.2119C8.6439 17.1542 9.45994 17.6254 10.3561 17.6257C11.2523 17.626 12.0686 17.1554 13.7014 16.2141L16.6582 14.5096C17.4757 14.0383 17.8845 13.8027 18.109 13.4142C18.3334 13.0257 18.3334 12.5539 18.3334 11.6102V9.7872C18.3334 9.52542 18.1916 9.28417 17.9629 9.15678C17.7416 9.03352 17.4719 9.03535 17.2522 9.1616L11.1893 12.6468C10.7825 12.8806 10.5791 12.9975 10.3559 12.9976C10.1327 12.9976 9.92924 12.8808 9.52231 12.6473L5.41877 10.2918C5.21322 10.1738 5.11044 10.1147 5.02788 10.1041C4.83968 10.0798 4.65872 10.1852 4.58702 10.3609C4.55559 10.438 4.55622 10.5565 4.55749 10.7935C4.55843 10.968 4.5589 11.0552 4.5752 11.1355C4.61174 11.3152 4.70627 11.4779 4.84432 11.5987C4.90596 11.6526 4.9815 11.6962 5.13265 11.7834L9.52 14.3156C9.92799 14.5511 10.132 14.6688 10.356 14.6689C10.58 14.6689 10.784 14.5513 11.1921 14.3161L16.5697 11.2162C16.7091 11.1358 16.7789 11.0957 16.8311 11.1259C16.8834 11.1561 16.8834 11.2365 16.8834 11.3974V12.2243C16.8834 12.4602 16.8834 12.5782 16.8272 12.6753C16.7711 12.7724 16.6689 12.8313 16.4645 12.9492L12.0291 15.5059C11.2125 15.9766 10.8042 16.212 10.3561 16.2118C9.90789 16.2115 9.49981 15.9758 8.68369 15.5044L4.53393 13.1072C4.52075 13.0996 4.51416 13.0958 4.50801 13.0922C3.63792 12.5838 3.10103 11.6536 3.09599 10.6459C3.09596 10.6388 3.09596 10.6312 3.09596 10.6159V9.85691C3.09596 9.30058 3.39226 8.78636 3.87357 8.50738C4.29887 8.26087 4.82348 8.26037 5.24924 8.5061L8.6864 10.4899Z" fill="white"/>
</svg>
