<svg width="24" height="24" viewBox="0 0 24 24" fill="none" xmlns="http://www.w3.org/2000/svg">
<path d="M19.1479 6.95071L19.1481 6.95085C19.2592 7.06198 19.3474 7.19392 19.4076 7.33913C19.4678 7.48435 19.4987 7.64 19.4987 7.79719C19.4987 7.95438 19.4678 8.11003 19.4076 8.25524C19.3474 8.40045 19.2593 8.53237 19.1481 8.64349C19.1481 8.6435 19.1481 8.64352 19.1481 8.64353L18.1061 9.68481L14.3143 5.893L15.3563 4.85037C15.5808 4.62603 15.8851 4.5 16.2024 4.5C16.5197 4.5 16.824 4.62603 17.0484 4.85037L19.1479 6.95071ZM4.60995 19.39L5.37928 14.8283L12.4078 7.79976L16.1994 11.5914L9.17167 18.6199L4.60995 19.39Z" stroke="white"/>
</svg>
