<svg width="80" height="80" viewBox="0 0 80 80" fill="none" xmlns="http://www.w3.org/2000/svg">
<g clip-path="url(#clip0_1725_16859)">
<path d="M39.9512 75.3091H6.71289C5.7957 75.3237 4.88239 75.1869 4.00973 74.9042C3.01964 74.6103 2.1305 74.0474 1.44119 73.2783C0.751875 72.5092 0.289416 71.564 0.105246 70.5478C0.0181071 70.1143 -0.015623 69.6719 0.00480953 69.2303V53.3221C0.134093 51.2103 0.678294 49.1446 1.60631 47.2433C2.80762 44.9128 4.10938 42.6836 5.41035 40.4552C6.71211 38.0227 8.01308 35.693 9.41213 33.3626C10.2331 31.8008 11.5808 30.5804 13.2162 29.9179C14.1504 29.5941 15.1307 29.4229 16.1194 29.411H61.7711C63.3572 29.3712 64.9255 29.7536 66.3152 30.5191C67.705 31.2846 68.8664 32.4056 69.6805 33.7675C71.683 36.8073 73.585 39.9483 75.487 43.0885L77.8896 47.04C79.2778 49.2561 80.0069 51.8214 79.9918 54.4363C80.0922 59.3012 79.9918 64.2642 79.9918 69.1275C80.0478 70.5673 79.5666 71.9765 78.6415 73.0813C77.7164 74.186 76.4137 74.9074 74.9864 75.1051C74.3249 75.2226 73.6555 75.2903 72.9839 75.3075L39.9512 75.3091ZM38.95 32.2484H16.0237C15.0083 32.1915 14.0085 32.5168 13.2209 33.1602C12.6151 33.6725 12.1064 34.2897 11.719 34.9821C10.3176 37.515 8.81579 40.1491 7.41438 42.682C6.41315 44.4083 5.41192 46.2279 4.41069 47.9503C4.29506 48.137 4.22385 48.3479 4.20255 48.5665C4.18125 48.7851 4.21042 49.0057 4.28782 49.2113C4.36521 49.4169 4.48877 49.602 4.64897 49.7523C4.80917 49.9026 5.00174 50.0141 5.21183 50.0783C5.53862 50.162 5.87613 50.1961 6.21306 50.1795H28.9385C30.037 50.1795 30.54 50.6864 30.6404 51.9057C30.6468 53.287 30.976 54.6477 31.6017 55.8792C32.2275 57.1106 33.1324 58.1788 34.2444 58.9983C35.2694 59.7899 36.4516 60.3534 37.712 60.6511C38.9724 60.9488 40.2818 60.9738 41.5527 60.7246C43.7821 60.373 45.7901 59.1755 47.1591 57.3811C48.4065 55.754 49.0757 53.7574 49.0611 51.7072C49.0512 51.5195 49.0818 51.3319 49.1508 51.1571C49.2199 50.9823 49.3258 50.8244 49.4613 50.6942C49.653 50.5315 49.877 50.4113 50.1186 50.3415C50.3602 50.2717 50.6138 50.2539 50.8627 50.2893H74.0887C74.3287 50.2723 74.5602 50.1939 74.761 50.0616C74.9619 49.9293 75.1253 49.7476 75.2356 49.5338C75.346 49.3201 75.3995 49.0816 75.391 48.8413C75.3825 48.6009 75.3124 48.3667 75.1873 48.1613C74.7848 47.5761 74.4179 46.9672 74.0887 46.3378C71.8862 42.7919 69.6836 39.144 67.3814 35.5981C66.8229 34.6126 66.005 33.799 65.0166 33.2457C64.0282 32.6924 62.9071 32.4204 61.775 32.4594C54.1669 32.2484 46.5588 32.2484 38.95 32.2484ZM39.9512 72.4721C39.9512 72.4724 39.9514 72.4725 39.9516 72.4725H73.1887C73.6948 72.455 74.1979 72.3872 74.6906 72.2701C76.2921 71.8644 77.1937 70.8514 77.1937 69.3315V54.944C77.2294 54.6848 77.205 54.4209 77.1225 54.1726C77.0399 53.9244 76.9013 53.6985 76.7174 53.5124C76.5335 53.3263 76.3093 53.1851 76.062 53.0995C75.8148 53.014 75.5512 52.9865 75.2916 53.0192H53.3627C52.9295 52.9948 52.5016 53.1235 52.1539 53.3829C51.8061 53.6423 51.5607 54.0157 51.4606 54.4378C50.7811 57.306 49.067 59.8224 46.647 61.5051C44.2269 63.1877 41.271 63.9181 38.3458 63.5564C35.9048 63.262 33.6112 62.2321 31.7694 60.6034C29.9275 58.9748 28.6247 56.8244 28.0337 54.4378C27.9479 53.9813 27.6954 53.5729 27.3254 53.292C26.9553 53.0112 26.4941 52.8778 26.0313 52.918H4.31025C3.98503 52.9066 3.66456 52.9985 3.39477 53.1805C3.12498 53.3625 2.91972 53.6252 2.80841 53.931C2.7257 54.2274 2.69178 54.5354 2.70797 54.8427V67.6092C2.69146 68.32 2.72502 69.0311 2.80841 69.7372C2.87061 70.2258 3.06076 70.6892 3.35962 71.0807C3.65848 71.4721 4.05545 71.7777 4.51034 71.9664C5.22324 72.1988 5.96396 72.335 6.71289 72.3713C17.9256 72.4717 28.9382 72.4717 39.9508 72.4717C39.951 72.4717 39.9512 72.4719 39.9512 72.4721ZM41.1517 14.1125V22.0148C41.1823 22.3322 41.1123 22.6511 40.9516 22.9266C40.8098 23.1856 40.5828 23.3875 40.3091 23.4984C40.0354 23.6092 39.7319 23.622 39.4498 23.5347C39.1619 23.4739 38.9005 23.3236 38.7032 23.1053C38.5059 22.887 38.3827 22.6118 38.3513 22.3193V6.10812C38.3731 5.74232 38.527 5.39686 38.7843 5.13594C39.0416 4.87502 39.3849 4.71636 39.7503 4.68945C40.1218 4.69953 40.475 4.85276 40.7362 5.11713C40.9973 5.3815 41.1462 5.73656 41.1517 6.10812V14.1117V14.1125ZM56.9705 22.0148C57.0172 21.6798 57.1557 21.3642 57.3707 21.103C58.8726 19.2795 60.3744 17.3539 61.8755 15.5319C62.4765 14.8257 63.0768 14.012 63.6802 13.3027C63.8131 13.1326 63.9848 12.9968 64.1809 12.9066C64.3771 12.8165 64.592 12.7746 64.8076 12.7845C65.0232 12.7944 65.2334 12.8558 65.4204 12.9636C65.6075 13.0714 65.766 13.2223 65.8827 13.4039C66.0855 13.6702 66.1868 14 66.1684 14.3342C66.15 14.6684 66.0131 14.9851 65.7823 15.2275C63.9776 17.4567 62.278 19.6851 60.4764 21.8131C60.1759 22.2188 59.7757 22.6237 59.4752 23.0286C59.2999 23.2754 59.0425 23.4517 58.749 23.5259C58.4555 23.6001 58.1452 23.5673 57.8737 23.4335C57.5851 23.3336 57.3388 23.1391 57.1749 22.8815C57.0109 22.624 56.9389 22.3185 56.9705 22.0148ZM22.5364 21.0148C22.933 21.4529 22.9185 22.1638 22.6018 22.6627C22.4409 22.916 22.2069 23.1145 21.9306 23.2318C21.6558 23.3471 21.351 23.3699 21.0621 23.2968C20.7732 23.2236 20.5159 23.0584 20.3291 22.8261L18.8273 21.0026C17.2258 18.9758 15.724 17.051 14.1193 15.025C13.9757 14.8821 13.8723 14.7038 13.8196 14.5082C13.8107 14.4751 13.8032 14.4417 13.7973 14.4081C13.7393 14.0793 13.8076 13.7306 13.9532 13.4301C14.0015 13.3303 14.0618 13.2361 14.1331 13.1496C14.3115 12.9329 14.5508 12.7747 14.82 12.6954C15.0908 12.598 15.3866 12.5951 15.6593 12.6871C15.932 12.7791 16.1655 12.9607 16.3219 13.2023C17.0226 14.0128 17.7233 14.9285 18.3243 15.7351C19.6261 17.4614 21.0275 19.1798 22.4289 20.9022C22.4664 20.9397 22.5024 20.9773 22.5364 21.0148Z" fill="#D5D5D5" fill-opacity="0.2"/>
</g>
<defs>
<clipPath id="clip0_1725_16859">
<rect width="80" height="80" fill="white"/>
</clipPath>
</defs>
</svg>
