<svg width="24" height="24" viewBox="0 0 24 24" fill="none" xmlns="http://www.w3.org/2000/svg">
<path fill-rule="evenodd" clip-rule="evenodd" d="M3 5.7C3 4.98392 3.28446 4.29716 3.79081 3.79081C4.29716 3.28446 4.98392 3 5.7 3H18.3C19.0161 3 19.7028 3.28446 20.2092 3.79081C20.7155 4.29716 21 4.98392 21 5.7V11.55C20.9999 11.6259 20.9903 11.7015 20.9712 11.775C20.9903 11.8485 20.9999 11.9241 21 12V18.3C21 19.0161 20.7155 19.7028 20.2092 20.2092C19.7028 20.7155 19.0161 21 18.3 21H5.7C4.98392 21 4.29716 20.7155 3.79081 20.2092C3.28446 19.7028 3 19.0161 3 18.3V15.6C3.00007 15.5241 3.00975 15.4485 3.0288 15.375C3.00975 15.3015 3.00007 15.2259 3 15.15V5.7ZM5.6946 14.547C5.3814 14.553 5.0832 14.5668 4.8 14.5884V5.7C4.8 5.46131 4.89482 5.23239 5.0636 5.0636C5.23239 4.89482 5.46131 4.8 5.7 4.8H18.3C18.5387 4.8 18.7676 4.89482 18.9364 5.0636C19.1052 5.23239 19.2 5.46131 19.2 5.7V11.1144C15.3327 11.2395 12.54 12.171 10.578 13.4751C11.3214 13.7388 12.153 14.1141 12.9684 14.6055C14.2275 15.3615 15.5073 16.4235 16.3686 17.8302C16.4303 17.931 16.4715 18.043 16.4899 18.1597C16.5084 18.2765 16.5036 18.3957 16.4759 18.5106C16.4483 18.6256 16.3983 18.7339 16.3287 18.8295C16.2592 18.9251 16.1715 19.006 16.0707 19.0677C15.9699 19.1294 15.8579 19.1706 15.7412 19.189C15.6244 19.2075 15.5052 19.2027 15.3903 19.175C15.2753 19.1474 15.167 19.0974 15.0714 19.0278C14.9758 18.9583 14.8949 18.8706 14.8332 18.7698C14.1708 17.6871 13.143 16.8096 12.0414 16.1481C10.9416 15.4875 9.8229 15.0753 9.0471 14.8953C7.95419 14.646 6.83522 14.5294 5.7144 14.5479H5.6946V14.547ZM7.4802 7.0392C7.88124 6.75636 8.35926 6.60309 8.85 6.6C9.219 6.6 9.7527 6.7035 10.2198 7.0392C10.7328 7.4082 11.1 8.0166 11.1 8.85C11.1 9.6834 10.7328 10.2909 10.2198 10.6599C9.81886 10.9431 9.34083 11.0966 8.85 11.1C8.481 11.1 7.9473 10.9965 7.4802 10.6599C6.9672 10.2909 6.6 9.6843 6.6 8.85C6.6 8.0166 6.9672 7.4091 7.4802 7.0392Z" fill="white"/>
</svg>
