<svg viewBox="0 0 20 20" fill="none" xmlns="http://www.w3.org/2000/svg">
<g clip-path="url(#clip0_632_1516)">
<path fill-rule="evenodd" clip-rule="evenodd" d="M10 0.833313C4.93754 0.833313 0.833374 4.93748 0.833374 9.99998C0.833374 15.0625 4.93754 19.1666 10 19.1666C15.0625 19.1666 19.1667 15.0625 19.1667 9.99998C19.1667 4.93748 15.0625 0.833313 10 0.833313ZM9.58337 4.99998C9.36236 4.99998 9.1504 5.08778 8.99412 5.24406C8.83784 5.40034 8.75004 5.6123 8.75004 5.83331C8.75004 6.05433 8.83784 6.26629 8.99412 6.42257C9.1504 6.57885 9.36236 6.66665 9.58337 6.66665H10C10.2211 6.66665 10.433 6.57885 10.5893 6.42257C10.7456 6.26629 10.8334 6.05433 10.8334 5.83331C10.8334 5.6123 10.7456 5.40034 10.5893 5.24406C10.433 5.08778 10.2211 4.99998 10 4.99998H9.58337ZM8.33337 8.33331C8.11236 8.33331 7.9004 8.42111 7.74412 8.57739C7.58784 8.73367 7.50004 8.94563 7.50004 9.16665C7.50004 9.38766 7.58784 9.59962 7.74412 9.7559C7.9004 9.91218 8.11236 9.99998 8.33337 9.99998H9.16671V12.5H8.33337C8.11236 12.5 7.9004 12.5878 7.74412 12.7441C7.58784 12.9003 7.50004 13.1123 7.50004 13.3333C7.50004 13.5543 7.58784 13.7663 7.74412 13.9226C7.9004 14.0788 8.11236 14.1666 8.33337 14.1666H11.6667C11.8877 14.1666 12.0997 14.0788 12.256 13.9226C12.4122 13.7663 12.5 13.5543 12.5 13.3333C12.5 13.1123 12.4122 12.9003 12.256 12.7441C12.0997 12.5878 11.8877 12.5 11.6667 12.5H10.8334V9.16665C10.8334 8.94563 10.7456 8.73367 10.5893 8.57739C10.433 8.42111 10.2211 8.33331 10 8.33331H8.33337Z" fill="white"/>
</g>
<defs>
<clipPath id="clip0_632_1516">
<rect width="20" height="20" fill="white"/>
</clipPath>
</defs>
</svg>
