<svg width="2187" height="129" viewBox="0 0 2187 129" fill="none" xmlns="http://www.w3.org/2000/svg">
<g clip-path="url(#clip0_917_47892)">
<rect width="396.922" height="100" transform="matrix(-0.766044 0.642788 -0.985175 0.171555 455.35 -69.29)" fill="white" fill-opacity="0.1"/>
<rect width="396.922" height="100" transform="matrix(-0.766044 0.642788 -0.985175 0.171555 607.927 -69.29)" fill="white" fill-opacity="0.1"/>
<rect width="396.922" height="100" transform="matrix(-0.766044 0.642788 -0.985175 0.171555 760.505 -69.29)" fill="white" fill-opacity="0.1"/>
<rect width="396.922" height="100" transform="matrix(-0.766044 0.642788 -0.985175 0.171555 913.082 -69.29)" fill="white" fill-opacity="0.1"/>
<rect width="396.922" height="100" transform="matrix(-0.766044 0.642788 -0.985175 0.171555 1065.66 -69.29)" fill="white" fill-opacity="0.1"/>
<rect width="396.922" height="100" transform="matrix(-0.766044 0.642788 -0.985175 0.171555 1218.24 -69.29)" fill="white" fill-opacity="0.1"/>
<rect width="396.922" height="100" transform="matrix(-0.766044 0.642788 -0.985175 0.171555 1370.81 -69.29)" fill="white" fill-opacity="0.1"/>
<rect width="396.922" height="100" transform="matrix(-0.766044 0.642788 -0.985175 0.171555 1523.39 -69.29)" fill="white" fill-opacity="0.1"/>
<rect width="396.922" height="100" transform="matrix(-0.766044 0.642788 -0.985175 0.171555 1675.97 -69.29)" fill="white" fill-opacity="0.1"/>
<rect width="396.922" height="100" transform="matrix(-0.766044 0.642788 -0.985175 0.171555 1828.55 -69.29)" fill="white" fill-opacity="0.1"/>
<rect width="396.922" height="100" transform="matrix(-0.766044 0.642788 -0.985175 0.171555 1981.12 -69.29)" fill="white" fill-opacity="0.1"/>
<rect width="396.922" height="100" transform="matrix(-0.766044 0.642788 -0.985175 0.171555 2133.7 -69.29)" fill="white" fill-opacity="0.1"/>
</g>
<defs>
<clipPath id="clip0_917_47892">
<rect width="2186.39" height="128.994" fill="white"/>
</clipPath>
</defs>
</svg>
