<svg width="24" height="24" viewBox="0 0 24 24" fill="none" xmlns="http://www.w3.org/2000/svg">
<path d="M11.9999 20.2105C17.3015 20.2105 21.5999 16.2518 21.5999 11.3684C21.5999 6.48504 17.3015 2.52631 11.9999 2.52631C6.6983 2.52631 2.3999 6.48504 2.3999 11.3684C2.3999 13.5916 3.2915 15.6253 4.7639 17.1789C4.6475 18.4623 4.2635 19.8695 3.8387 20.9255C3.7439 21.1604 3.9275 21.4231 4.1663 21.3827C6.8735 20.9154 8.4827 20.1979 9.1823 19.824C10.1012 20.0829 11.0486 20.2129 11.9999 20.2105ZM11.9999 8.83325C13.9967 6.67199 18.9899 10.4539 11.9999 15.3158C5.0099 10.4526 10.0031 6.67199 11.9999 8.83325Z" fill="black"/>
</svg>
