<svg width="30" height="30" viewBox="0 0 30 30" fill="none" xmlns="http://www.w3.org/2000/svg">
<path d="M15.18 23.7526C20.8019 23.7526 25.3599 19.5547 25.3599 14.3763C25.3599 9.1979 20.8019 5 15.18 5C9.55808 5 5 9.1979 5 14.3763C5 16.7338 5.94546 18.8903 7.50682 20.5378C7.38339 21.8988 6.97619 23.3909 6.52572 24.5107C6.4252 24.7599 6.61989 25.0385 6.87311 24.9956C9.74387 24.5 11.4503 23.7392 12.1921 23.3427C13.1666 23.6172 14.1712 23.7551 15.18 23.7526ZM15.18 11.688C17.2974 9.39614 22.5923 13.4065 15.18 18.5621C7.76768 13.4052 13.0625 9.39614 15.18 11.688Z" fill="black"/>
</svg>
