<svg width="100" height="35" viewBox="0 0 100 35" fill="none" xmlns="http://www.w3.org/2000/svg">
<path d="M99.5 0.5H0.5V34.5H99.5V0.5Z" stroke="white"/>
<path d="M16.3788 13.784H13.9788L22.7148 4.76001H26.7148V15H22.7148V8.02401L23.9148 8.52001L17.5948 15H12.7948L6.4588 8.53601L7.6748 8.04001V15H3.6748V4.76001H7.6748L16.3788 13.784ZM31.58 13.448V11.048H42.524V13.448H31.58ZM27.996 15L34.86 4.76001H39.308L46.236 15H41.836L35.9 5.83201H38.284L32.396 15H27.996ZM50.7703 15L44.5623 4.76001H49.0743L54.3703 14.6H52.7383L58.0343 4.76001H62.4823L56.3383 15H50.7703ZM64.3925 13.448V11.048H75.3365V13.448H64.3925ZM60.8085 15L67.6725 4.76001H72.1205L79.0485 15H74.6485L68.7125 5.83201H71.0965L65.2085 15H60.8085ZM84.331 10.68V11.96H96.491V15H80.331V4.76001H96.459V7.80001H84.331V9.08001H94.251V10.68H84.331Z" fill="#FF6FBF"/>
<path d="M16.3788 13.784H13.9788L22.7148 4.76001H26.7148V15H22.7148V8.02401L23.9148 8.52001L17.5948 15H12.7948L6.4588 8.53601L7.6748 8.04001V15H3.6748V4.76001H7.6748L16.3788 13.784ZM31.58 13.448V11.048H42.524V13.448H31.58ZM27.996 15L34.86 4.76001H39.308L46.236 15H41.836L35.9 5.83201H38.284L32.396 15H27.996ZM50.7703 15L44.5623 4.76001H49.0743L54.3703 14.6H52.7383L58.0343 4.76001H62.4823L56.3383 15H50.7703ZM64.3925 13.448V11.048H75.3365V13.448H64.3925ZM60.8085 15L67.6725 4.76001H72.1205L79.0485 15H74.6485L68.7125 5.83201H71.0965L65.2085 15H60.8085ZM84.331 10.68V11.96H96.491V15H80.331V4.76001H96.459V7.80001H84.331V9.08001H94.251V10.68H84.331Z" fill="white"/>
<path d="M100 20H0V35H100V20Z" fill="white"/>
<path d="M3.61328 28.415H6.61628C6.66761 28.569 6.81794 28.701 7.06728 28.811C7.31661 28.9137 7.65028 28.9943 8.06828 29.053C8.49361 29.1043 8.98494 29.13 9.54228 29.13C10.0923 29.13 10.525 29.1153 10.8403 29.086C11.163 29.0493 11.3903 28.9907 11.5223 28.91C11.6543 28.822 11.7203 28.7047 11.7203 28.558C11.7203 28.4187 11.614 28.3123 11.4013 28.239C11.1886 28.1583 10.811 28.1033 10.2683 28.074C9.72561 28.0447 8.96294 28.03 7.98028 28.03C7.24694 28.03 6.61261 27.997 6.07728 27.931C5.54928 27.8577 5.11294 27.7477 4.76828 27.601C4.43094 27.447 4.18161 27.2563 4.02028 27.029C3.85894 26.7943 3.77828 26.5157 3.77828 26.193C3.77828 25.6357 3.96528 25.1773 4.33928 24.818C4.72061 24.4513 5.29261 24.18 6.05528 24.004C6.82528 23.8207 7.78594 23.729 8.93728 23.729C10.624 23.729 11.911 23.9747 12.7983 24.466C13.693 24.95 14.1403 25.6503 14.1403 26.567H11.2913C11.2546 26.325 11.0273 26.1417 10.6093 26.017C10.1913 25.885 9.59728 25.819 8.82728 25.819C8.06461 25.819 7.49628 25.863 7.12228 25.951C6.75561 26.039 6.57228 26.1893 6.57228 26.402C6.57228 26.512 6.62361 26.6 6.72628 26.666C6.82894 26.732 7.00494 26.787 7.25428 26.831C7.51094 26.8677 7.87028 26.8933 8.33228 26.908C8.79428 26.9227 9.38094 26.93 10.0923 26.93C10.877 26.93 11.5443 26.9703 12.0943 27.051C12.6443 27.1243 13.088 27.238 13.4253 27.392C13.77 27.546 14.0193 27.744 14.1733 27.986C14.3273 28.2207 14.4043 28.4993 14.4043 28.822C14.4043 29.3793 14.2283 29.834 13.8763 30.186C13.5243 30.538 12.967 30.7983 12.2043 30.967C11.4416 31.1357 10.4443 31.22 9.21228 31.22C8.51561 31.22 7.87394 31.1797 7.28728 31.099C6.70794 31.0183 6.19094 30.901 5.73628 30.747C5.28161 30.5857 4.89661 30.3913 4.58128 30.164C4.26594 29.9293 4.02394 29.669 3.85528 29.383C3.69394 29.0897 3.61328 28.767 3.61328 28.415ZM19.2355 23.96H30.6755V26.05H19.2355V23.96ZM23.5805 25.907H26.3305V31H23.5805V25.907ZM46.1654 26.985V23.96H48.9154V27.48C48.9154 28.1033 48.7981 28.635 48.5634 29.075C48.3361 29.5077 48.0171 29.867 47.6064 30.153C47.1958 30.4317 46.7228 30.648 46.1874 30.802C45.6521 30.956 45.0764 31.0623 44.4604 31.121C43.8518 31.187 43.2321 31.22 42.6014 31.22C41.9341 31.22 41.2888 31.187 40.6654 31.121C40.0421 31.0623 39.4628 30.956 38.9274 30.802C38.3994 30.648 37.9374 30.4317 37.5414 30.153C37.1454 29.867 36.8338 29.5077 36.6064 29.075C36.3864 28.635 36.2764 28.1033 36.2764 27.48V23.96H39.0264V26.985C39.0264 27.5717 39.1694 28.019 39.4554 28.327C39.7414 28.635 40.1484 28.8477 40.6764 28.965C41.2118 29.075 41.8534 29.13 42.6014 29.13C43.3274 29.13 43.9581 29.075 44.4934 28.965C45.0288 28.8477 45.4394 28.635 45.7254 28.327C46.0188 28.019 46.1654 27.5717 46.1654 26.985ZM62.8814 23.96C63.8714 23.96 64.6891 24.0553 65.3344 24.246C65.9797 24.4367 66.4857 24.697 66.8524 25.027C67.2191 25.357 67.4757 25.7347 67.6224 26.16C67.7764 26.578 67.8534 27.018 67.8534 27.48C67.8534 27.942 67.7691 28.3857 67.6004 28.811C67.4317 29.229 67.1531 29.603 66.7644 29.933C66.3831 30.263 65.8734 30.5233 65.2354 30.714C64.6047 30.9047 63.8201 31 62.8814 31H54.9614V23.96H62.8814ZM57.7114 28.8H62.7714C63.1821 28.8 63.5304 28.7743 63.8164 28.723C64.1024 28.6643 64.3297 28.58 64.4984 28.47C64.6744 28.36 64.7991 28.2243 64.8724 28.063C64.9531 27.8943 64.9934 27.7 64.9934 27.48C64.9934 27.26 64.9531 27.0693 64.8724 26.908C64.7991 26.7393 64.6744 26.6 64.4984 26.49C64.3297 26.38 64.1024 26.2993 63.8164 26.248C63.5304 26.1893 63.1821 26.16 62.7714 26.16H57.7114V28.8ZM73.951 23.96H76.701V31H73.951V23.96ZM89.4554 31.22C87.8568 31.22 86.5698 31.0807 85.5944 30.802C84.6191 30.516 83.9078 30.098 83.4604 29.548C83.0204 28.9907 82.8004 28.3013 82.8004 27.48C82.8004 26.6587 83.0204 25.973 83.4604 25.423C83.9078 24.8657 84.6191 24.4477 85.5944 24.169C86.5698 23.883 87.8568 23.74 89.4554 23.74C91.0541 23.74 92.3411 23.883 93.3164 24.169C94.2918 24.4477 94.9994 24.8657 95.4394 25.423C95.8868 25.973 96.1104 26.6587 96.1104 27.48C96.1104 28.3013 95.8868 28.9907 95.4394 29.548C94.9994 30.098 94.2918 30.516 93.3164 30.802C92.3411 31.0807 91.0541 31.22 89.4554 31.22ZM89.4554 29.13C90.2108 29.13 90.8634 29.086 91.4134 28.998C91.9634 28.9027 92.3888 28.7377 92.6894 28.503C92.9901 28.261 93.1404 27.92 93.1404 27.48C93.1404 27.04 92.9901 26.7027 92.6894 26.468C92.3888 26.226 91.9634 26.061 91.4134 25.973C90.8634 25.8777 90.2108 25.83 89.4554 25.83C88.7001 25.83 88.0364 25.8777 87.4644 25.973C86.8998 26.061 86.4561 26.226 86.1334 26.468C85.8181 26.7027 85.6604 27.04 85.6604 27.48C85.6604 27.92 85.8181 28.261 86.1334 28.503C86.4561 28.7377 86.8998 28.9027 87.4644 28.998C88.0364 29.086 88.7001 29.13 89.4554 29.13Z" fill="#00BDFC"/>
<path d="M3.61328 28.415H6.61628C6.66761 28.569 6.81794 28.701 7.06728 28.811C7.31661 28.9137 7.65028 28.9943 8.06828 29.053C8.49361 29.1043 8.98494 29.13 9.54228 29.13C10.0923 29.13 10.525 29.1153 10.8403 29.086C11.163 29.0493 11.3903 28.9907 11.5223 28.91C11.6543 28.822 11.7203 28.7047 11.7203 28.558C11.7203 28.4187 11.614 28.3123 11.4013 28.239C11.1886 28.1583 10.811 28.1033 10.2683 28.074C9.72561 28.0447 8.96294 28.03 7.98028 28.03C7.24694 28.03 6.61261 27.997 6.07728 27.931C5.54928 27.8577 5.11294 27.7477 4.76828 27.601C4.43094 27.447 4.18161 27.2563 4.02028 27.029C3.85894 26.7943 3.77828 26.5157 3.77828 26.193C3.77828 25.6357 3.96528 25.1773 4.33928 24.818C4.72061 24.4513 5.29261 24.18 6.05528 24.004C6.82528 23.8207 7.78594 23.729 8.93728 23.729C10.624 23.729 11.911 23.9747 12.7983 24.466C13.693 24.95 14.1403 25.6503 14.1403 26.567H11.2913C11.2546 26.325 11.0273 26.1417 10.6093 26.017C10.1913 25.885 9.59728 25.819 8.82728 25.819C8.06461 25.819 7.49628 25.863 7.12228 25.951C6.75561 26.039 6.57228 26.1893 6.57228 26.402C6.57228 26.512 6.62361 26.6 6.72628 26.666C6.82894 26.732 7.00494 26.787 7.25428 26.831C7.51094 26.8677 7.87028 26.8933 8.33228 26.908C8.79428 26.9227 9.38094 26.93 10.0923 26.93C10.877 26.93 11.5443 26.9703 12.0943 27.051C12.6443 27.1243 13.088 27.238 13.4253 27.392C13.77 27.546 14.0193 27.744 14.1733 27.986C14.3273 28.2207 14.4043 28.4993 14.4043 28.822C14.4043 29.3793 14.2283 29.834 13.8763 30.186C13.5243 30.538 12.967 30.7983 12.2043 30.967C11.4416 31.1357 10.4443 31.22 9.21228 31.22C8.51561 31.22 7.87394 31.1797 7.28728 31.099C6.70794 31.0183 6.19094 30.901 5.73628 30.747C5.28161 30.5857 4.89661 30.3913 4.58128 30.164C4.26594 29.9293 4.02394 29.669 3.85528 29.383C3.69394 29.0897 3.61328 28.767 3.61328 28.415ZM19.2355 23.96H30.6755V26.05H19.2355V23.96ZM23.5805 25.907H26.3305V31H23.5805V25.907ZM46.1654 26.985V23.96H48.9154V27.48C48.9154 28.1033 48.7981 28.635 48.5634 29.075C48.3361 29.5077 48.0171 29.867 47.6064 30.153C47.1958 30.4317 46.7228 30.648 46.1874 30.802C45.6521 30.956 45.0764 31.0623 44.4604 31.121C43.8518 31.187 43.2321 31.22 42.6014 31.22C41.9341 31.22 41.2888 31.187 40.6654 31.121C40.0421 31.0623 39.4628 30.956 38.9274 30.802C38.3994 30.648 37.9374 30.4317 37.5414 30.153C37.1454 29.867 36.8338 29.5077 36.6064 29.075C36.3864 28.635 36.2764 28.1033 36.2764 27.48V23.96H39.0264V26.985C39.0264 27.5717 39.1694 28.019 39.4554 28.327C39.7414 28.635 40.1484 28.8477 40.6764 28.965C41.2118 29.075 41.8534 29.13 42.6014 29.13C43.3274 29.13 43.9581 29.075 44.4934 28.965C45.0288 28.8477 45.4394 28.635 45.7254 28.327C46.0188 28.019 46.1654 27.5717 46.1654 26.985ZM62.8814 23.96C63.8714 23.96 64.6891 24.0553 65.3344 24.246C65.9797 24.4367 66.4857 24.697 66.8524 25.027C67.2191 25.357 67.4757 25.7347 67.6224 26.16C67.7764 26.578 67.8534 27.018 67.8534 27.48C67.8534 27.942 67.7691 28.3857 67.6004 28.811C67.4317 29.229 67.1531 29.603 66.7644 29.933C66.3831 30.263 65.8734 30.5233 65.2354 30.714C64.6047 30.9047 63.8201 31 62.8814 31H54.9614V23.96H62.8814ZM57.7114 28.8H62.7714C63.1821 28.8 63.5304 28.7743 63.8164 28.723C64.1024 28.6643 64.3297 28.58 64.4984 28.47C64.6744 28.36 64.7991 28.2243 64.8724 28.063C64.9531 27.8943 64.9934 27.7 64.9934 27.48C64.9934 27.26 64.9531 27.0693 64.8724 26.908C64.7991 26.7393 64.6744 26.6 64.4984 26.49C64.3297 26.38 64.1024 26.2993 63.8164 26.248C63.5304 26.1893 63.1821 26.16 62.7714 26.16H57.7114V28.8ZM73.951 23.96H76.701V31H73.951V23.96ZM89.4554 31.22C87.8568 31.22 86.5698 31.0807 85.5944 30.802C84.6191 30.516 83.9078 30.098 83.4604 29.548C83.0204 28.9907 82.8004 28.3013 82.8004 27.48C82.8004 26.6587 83.0204 25.973 83.4604 25.423C83.9078 24.8657 84.6191 24.4477 85.5944 24.169C86.5698 23.883 87.8568 23.74 89.4554 23.74C91.0541 23.74 92.3411 23.883 93.3164 24.169C94.2918 24.4477 94.9994 24.8657 95.4394 25.423C95.8868 25.973 96.1104 26.6587 96.1104 27.48C96.1104 28.3013 95.8868 28.9907 95.4394 29.548C94.9994 30.098 94.2918 30.516 93.3164 30.802C92.3411 31.0807 91.0541 31.22 89.4554 31.22ZM89.4554 29.13C90.2108 29.13 90.8634 29.086 91.4134 28.998C91.9634 28.9027 92.3888 28.7377 92.6894 28.503C92.9901 28.261 93.1404 27.92 93.1404 27.48C93.1404 27.04 92.9901 26.7027 92.6894 26.468C92.3888 26.226 91.9634 26.061 91.4134 25.973C90.8634 25.8777 90.2108 25.83 89.4554 25.83C88.7001 25.83 88.0364 25.8777 87.4644 25.973C86.8998 26.061 86.4561 26.226 86.1334 26.468C85.8181 26.7027 85.6604 27.04 85.6604 27.48C85.6604 27.92 85.8181 28.261 86.1334 28.503C86.4561 28.7377 86.8998 28.9027 87.4644 28.998C88.0364 29.086 88.7001 29.13 89.4554 29.13Z" fill="#6D2EF5"/>
<path d="M3.61328 28.415H6.61628C6.66761 28.569 6.81794 28.701 7.06728 28.811C7.31661 28.9137 7.65028 28.9943 8.06828 29.053C8.49361 29.1043 8.98494 29.13 9.54228 29.13C10.0923 29.13 10.525 29.1153 10.8403 29.086C11.163 29.0493 11.3903 28.9907 11.5223 28.91C11.6543 28.822 11.7203 28.7047 11.7203 28.558C11.7203 28.4187 11.614 28.3123 11.4013 28.239C11.1886 28.1583 10.811 28.1033 10.2683 28.074C9.72561 28.0447 8.96294 28.03 7.98028 28.03C7.24694 28.03 6.61261 27.997 6.07728 27.931C5.54928 27.8577 5.11294 27.7477 4.76828 27.601C4.43094 27.447 4.18161 27.2563 4.02028 27.029C3.85894 26.7943 3.77828 26.5157 3.77828 26.193C3.77828 25.6357 3.96528 25.1773 4.33928 24.818C4.72061 24.4513 5.29261 24.18 6.05528 24.004C6.82528 23.8207 7.78594 23.729 8.93728 23.729C10.624 23.729 11.911 23.9747 12.7983 24.466C13.693 24.95 14.1403 25.6503 14.1403 26.567H11.2913C11.2546 26.325 11.0273 26.1417 10.6093 26.017C10.1913 25.885 9.59728 25.819 8.82728 25.819C8.06461 25.819 7.49628 25.863 7.12228 25.951C6.75561 26.039 6.57228 26.1893 6.57228 26.402C6.57228 26.512 6.62361 26.6 6.72628 26.666C6.82894 26.732 7.00494 26.787 7.25428 26.831C7.51094 26.8677 7.87028 26.8933 8.33228 26.908C8.79428 26.9227 9.38094 26.93 10.0923 26.93C10.877 26.93 11.5443 26.9703 12.0943 27.051C12.6443 27.1243 13.088 27.238 13.4253 27.392C13.77 27.546 14.0193 27.744 14.1733 27.986C14.3273 28.2207 14.4043 28.4993 14.4043 28.822C14.4043 29.3793 14.2283 29.834 13.8763 30.186C13.5243 30.538 12.967 30.7983 12.2043 30.967C11.4416 31.1357 10.4443 31.22 9.21228 31.22C8.51561 31.22 7.87394 31.1797 7.28728 31.099C6.70794 31.0183 6.19094 30.901 5.73628 30.747C5.28161 30.5857 4.89661 30.3913 4.58128 30.164C4.26594 29.9293 4.02394 29.669 3.85528 29.383C3.69394 29.0897 3.61328 28.767 3.61328 28.415ZM19.2355 23.96H30.6755V26.05H19.2355V23.96ZM23.5805 25.907H26.3305V31H23.5805V25.907ZM46.1654 26.985V23.96H48.9154V27.48C48.9154 28.1033 48.7981 28.635 48.5634 29.075C48.3361 29.5077 48.0171 29.867 47.6064 30.153C47.1958 30.4317 46.7228 30.648 46.1874 30.802C45.6521 30.956 45.0764 31.0623 44.4604 31.121C43.8518 31.187 43.2321 31.22 42.6014 31.22C41.9341 31.22 41.2888 31.187 40.6654 31.121C40.0421 31.0623 39.4628 30.956 38.9274 30.802C38.3994 30.648 37.9374 30.4317 37.5414 30.153C37.1454 29.867 36.8338 29.5077 36.6064 29.075C36.3864 28.635 36.2764 28.1033 36.2764 27.48V23.96H39.0264V26.985C39.0264 27.5717 39.1694 28.019 39.4554 28.327C39.7414 28.635 40.1484 28.8477 40.6764 28.965C41.2118 29.075 41.8534 29.13 42.6014 29.13C43.3274 29.13 43.9581 29.075 44.4934 28.965C45.0288 28.8477 45.4394 28.635 45.7254 28.327C46.0188 28.019 46.1654 27.5717 46.1654 26.985ZM62.8814 23.96C63.8714 23.96 64.6891 24.0553 65.3344 24.246C65.9797 24.4367 66.4857 24.697 66.8524 25.027C67.2191 25.357 67.4757 25.7347 67.6224 26.16C67.7764 26.578 67.8534 27.018 67.8534 27.48C67.8534 27.942 67.7691 28.3857 67.6004 28.811C67.4317 29.229 67.1531 29.603 66.7644 29.933C66.3831 30.263 65.8734 30.5233 65.2354 30.714C64.6047 30.9047 63.8201 31 62.8814 31H54.9614V23.96H62.8814ZM57.7114 28.8H62.7714C63.1821 28.8 63.5304 28.7743 63.8164 28.723C64.1024 28.6643 64.3297 28.58 64.4984 28.47C64.6744 28.36 64.7991 28.2243 64.8724 28.063C64.9531 27.8943 64.9934 27.7 64.9934 27.48C64.9934 27.26 64.9531 27.0693 64.8724 26.908C64.7991 26.7393 64.6744 26.6 64.4984 26.49C64.3297 26.38 64.1024 26.2993 63.8164 26.248C63.5304 26.1893 63.1821 26.16 62.7714 26.16H57.7114V28.8ZM73.951 23.96H76.701V31H73.951V23.96ZM89.4554 31.22C87.8568 31.22 86.5698 31.0807 85.5944 30.802C84.6191 30.516 83.9078 30.098 83.4604 29.548C83.0204 28.9907 82.8004 28.3013 82.8004 27.48C82.8004 26.6587 83.0204 25.973 83.4604 25.423C83.9078 24.8657 84.6191 24.4477 85.5944 24.169C86.5698 23.883 87.8568 23.74 89.4554 23.74C91.0541 23.74 92.3411 23.883 93.3164 24.169C94.2918 24.4477 94.9994 24.8657 95.4394 25.423C95.8868 25.973 96.1104 26.6587 96.1104 27.48C96.1104 28.3013 95.8868 28.9907 95.4394 29.548C94.9994 30.098 94.2918 30.516 93.3164 30.802C92.3411 31.0807 91.0541 31.22 89.4554 31.22ZM89.4554 29.13C90.2108 29.13 90.8634 29.086 91.4134 28.998C91.9634 28.9027 92.3888 28.7377 92.6894 28.503C92.9901 28.261 93.1404 27.92 93.1404 27.48C93.1404 27.04 92.9901 26.7027 92.6894 26.468C92.3888 26.226 91.9634 26.061 91.4134 25.973C90.8634 25.8777 90.2108 25.83 89.4554 25.83C88.7001 25.83 88.0364 25.8777 87.4644 25.973C86.8998 26.061 86.4561 26.226 86.1334 26.468C85.8181 26.7027 85.6604 27.04 85.6604 27.48C85.6604 27.92 85.8181 28.261 86.1334 28.503C86.4561 28.7377 86.8998 28.9027 87.4644 28.998C88.0364 29.086 88.7001 29.13 89.4554 29.13Z" fill="black"/>
</svg>
