<svg width="24" height="24" viewBox="0 0 24 24" fill="none" xmlns="http://www.w3.org/2000/svg">
<path d="M12.75 19C12.75 18.8011 12.671 18.6103 12.5303 18.4697C12.3897 18.329 12.1989 18.25 12 18.25H6C5.9337 18.25 5.87011 18.2237 5.82322 18.1768C5.77634 18.1299 5.75 18.0663 5.75 18V6C5.75 5.9337 5.77634 5.87011 5.82322 5.82322C5.87011 5.77634 5.9337 5.75 6 5.75H12C12.1989 5.75 12.3897 5.67098 12.5303 5.53033C12.671 5.38968 12.75 5.19891 12.75 5C12.75 4.80109 12.671 4.61032 12.5303 4.46967C12.3897 4.32902 12.1989 4.25 12 4.25H6C5.034 4.25 4.25 5.034 4.25 6V18C4.25 18.4641 4.43437 18.9092 4.76256 19.2374C5.09075 19.5656 5.53587 19.75 6 19.75H12C12.1989 19.75 12.3897 19.671 12.5303 19.5303C12.671 19.3897 12.75 19.1989 12.75 19Z" fill="white"/>
<path d="M8.38801 13.115C8.38801 13.3802 8.49337 13.6346 8.68091 13.8221C8.86844 14.0097 9.1228 14.115 9.38801 14.115H14.244C14.2673 14.4703 14.296 14.8257 14.33 15.181L14.36 15.486C14.3712 15.601 14.4099 15.7115 14.4729 15.8083C14.5359 15.9051 14.6214 15.9852 14.722 16.042C14.8226 16.0987 14.9354 16.1303 15.0508 16.1342C15.1662 16.138 15.2809 16.1139 15.385 16.064C17.2135 15.1887 18.8685 13.9897 20.27 12.525L20.3 12.494C20.429 12.3599 20.501 12.1811 20.501 11.995C20.501 11.809 20.429 11.6301 20.3 11.496L20.27 11.465C18.8685 10.0003 17.2135 8.80129 15.385 7.92602C15.2809 7.87609 15.1662 7.85203 15.0508 7.85587C14.9354 7.8597 14.8226 7.89133 14.722 7.94805C14.6214 8.00478 14.5359 8.08494 14.4729 8.18172C14.4099 8.27851 14.3712 8.38907 14.36 8.50402L14.33 8.80902C14.296 9.16368 14.2673 9.51902 14.244 9.87502H9.38801C9.1228 9.87502 8.86844 9.98037 8.68091 10.1679C8.49337 10.3554 8.38801 10.6098 8.38801 10.875V13.115Z" fill="white"/>
</svg>
