<svg width="87" height="32" viewBox="0 0 87 32" fill="none" xmlns="http://www.w3.org/2000/svg">
<path d="M86.2859 1.42871H1.42871V30.5716H86.2859V1.42871Z" stroke="white"/>
<path d="M15.0391 12.8149H12.9819L20.4699 5.08008H23.8985V13.8572H20.4699V7.87779L21.4985 8.30294L16.0813 13.8572H11.9671L6.53619 8.31665L7.57847 7.89151V13.8572H4.1499V5.08008H7.57847L15.0391 12.8149ZM28.0687 12.5269V10.4698H37.4492V12.5269H28.0687ZM24.9967 13.8572L30.8801 5.08008H34.6927L40.6309 13.8572H36.8595L31.7715 5.99893H33.8149L28.7681 13.8572H24.9967ZM44.5175 13.8572L39.1963 5.08008H43.0638L47.6032 13.5144H46.2043L50.7438 5.08008H54.5563L49.2901 13.8572H44.5175ZM56.1937 12.5269V10.4698H65.5742V12.5269H56.1937ZM53.1217 13.8572L59.0051 5.08008H62.8177L68.7559 13.8572H64.9845L59.8965 5.99893H61.9399L56.8931 13.8572H53.1217ZM73.2838 10.1544V11.2515H83.7067V13.8572H69.8552V5.08008H83.6792V7.68579H73.2838V8.78294H81.7867V10.1544H73.2838Z" fill="#FF6FBF"/>
<path d="M15.0391 12.8149H12.9819L20.4699 5.08008H23.8985V13.8572H20.4699V7.87779L21.4985 8.30294L16.0813 13.8572H11.9671L6.53619 8.31665L7.57847 7.89151V13.8572H4.1499V5.08008H7.57847L15.0391 12.8149ZM28.0687 12.5269V10.4698H37.4492V12.5269H28.0687ZM24.9967 13.8572L30.8801 5.08008H34.6927L40.6309 13.8572H36.8595L31.7715 5.99893H33.8149L28.7681 13.8572H24.9967ZM44.5175 13.8572L39.1963 5.08008H43.0638L47.6032 13.5144H46.2043L50.7438 5.08008H54.5563L49.2901 13.8572H44.5175ZM56.1937 12.5269V10.4698H65.5742V12.5269H56.1937ZM53.1217 13.8572L59.0051 5.08008H62.8177L68.7559 13.8572H64.9845L59.8965 5.99893H61.9399L56.8931 13.8572H53.1217ZM73.2838 10.1544V11.2515H83.7067V13.8572H69.8552V5.08008H83.6792V7.68579H73.2838V8.78294H81.7867V10.1544H73.2838Z" fill="white"/>
<path d="M86.7143 18.1431H1V31.0002H86.7143V18.1431Z" fill="white"/>
<path d="M4.09717 25.3559H6.67117C6.71517 25.4879 6.84402 25.6011 7.05774 25.6954C7.27145 25.7834 7.55745 25.8525 7.91574 25.9028C8.28031 25.9468 8.70145 25.9688 9.17917 25.9688C9.65058 25.9688 10.0215 25.9562 10.2917 25.9311C10.5683 25.8996 10.7632 25.8494 10.8763 25.7802C10.9894 25.7048 11.046 25.6042 11.046 25.4785C11.046 25.3591 10.9549 25.2679 10.7726 25.2051C10.5903 25.1359 10.2666 25.0888 9.80144 25.0636C9.33631 25.0385 8.68259 25.0259 7.84031 25.0259C7.21173 25.0259 6.66802 24.9976 6.20917 24.9411C5.7566 24.8782 5.38259 24.784 5.08717 24.6582C4.79802 24.5262 4.58431 24.3628 4.44603 24.1679C4.30773 23.9668 4.2386 23.728 4.2386 23.4514C4.2386 22.9737 4.39888 22.5808 4.71945 22.2728C5.04631 21.9585 5.53659 21.7259 6.19031 21.5751C6.85031 21.418 7.67373 21.3394 8.6606 21.3394C10.1063 21.3394 11.2095 21.55 11.97 21.9711C12.7369 22.3859 13.1203 22.9862 13.1203 23.7719H10.6783C10.6468 23.5645 10.452 23.4074 10.0937 23.3005C9.73544 23.1874 9.22631 23.1308 8.56631 23.1308C7.91259 23.1308 7.42545 23.1685 7.10488 23.2439C6.79059 23.3194 6.63345 23.4482 6.63345 23.6305C6.63345 23.7248 6.67745 23.8002 6.76545 23.8568C6.85345 23.9134 7.00431 23.9605 7.21803 23.9982C7.43802 24.0297 7.74603 24.0516 8.14203 24.0642C8.53803 24.0768 9.04088 24.0831 9.65058 24.0831C10.3232 24.0831 10.8952 24.1176 11.3666 24.1868C11.838 24.2496 12.2183 24.3471 12.5074 24.4791C12.8029 24.6111 13.0166 24.7808 13.1486 24.9882C13.2806 25.1894 13.3466 25.4282 13.3466 25.7048C13.3466 26.1825 13.1957 26.5722 12.894 26.8739C12.5923 27.1756 12.1146 27.3988 11.4609 27.5434C10.8071 27.688 9.95229 27.7602 8.89631 27.7602C8.29917 27.7602 7.74916 27.7257 7.24631 27.6565C6.74973 27.5873 6.30659 27.4868 5.91688 27.3548C5.52717 27.2165 5.19717 27.0499 4.92688 26.8551C4.65659 26.6539 4.44916 26.4308 4.3046 26.1856C4.16631 25.9342 4.09717 25.6576 4.09717 25.3559ZM17.4876 21.5374H27.2933V23.3288H17.4876V21.5374ZM21.2119 23.2062H23.569V27.5716H21.2119V23.2062ZM40.5704 24.1302V21.5374H42.9275V24.5545C42.9275 25.0888 42.827 25.5445 42.6258 25.9216C42.431 26.2925 42.1576 26.6005 41.8055 26.8456C41.4536 27.0845 41.0482 27.2699 40.5892 27.4019C40.1304 27.5339 39.637 27.625 39.109 27.6754C38.5873 27.7319 38.0561 27.7602 37.5155 27.7602C36.9436 27.7602 36.3904 27.7319 35.8561 27.6754C35.3218 27.625 34.8253 27.5339 34.3664 27.4019C33.9138 27.2699 33.5178 27.0845 33.1784 26.8456C32.839 26.6005 32.5719 26.2925 32.377 25.9216C32.1884 25.5445 32.0941 25.0888 32.0941 24.5545V21.5374H34.4512V24.1302C34.4512 24.6331 34.5738 25.0165 34.819 25.2805C35.0641 25.5445 35.413 25.7268 35.8655 25.8274C36.3244 25.9216 36.8744 25.9688 37.5155 25.9688C38.1378 25.9688 38.6784 25.9216 39.1372 25.8274C39.5962 25.7268 39.9481 25.5445 40.1932 25.2805C40.4447 25.0165 40.5704 24.6331 40.5704 24.1302ZM54.8984 21.5374C55.747 21.5374 56.4478 21.619 57.001 21.7825C57.5541 21.946 57.9878 22.1691 58.3021 22.4519C58.6164 22.7348 58.8364 23.0585 58.9621 23.4231C59.0941 23.7814 59.1601 24.1585 59.1601 24.5545C59.1601 24.9505 59.0878 25.3308 58.9432 25.6954C58.7986 26.0536 58.5598 26.3742 58.2267 26.6571C57.8998 26.9399 57.463 27.163 56.9161 27.3265C56.3755 27.49 55.703 27.5716 54.8984 27.5716H48.1098V21.5374H54.8984ZM50.467 25.6859H54.8041C55.1561 25.6859 55.4547 25.6639 55.6998 25.6199C55.945 25.5696 56.1398 25.4974 56.2844 25.4031C56.4352 25.3088 56.5421 25.1925 56.605 25.0542C56.6741 24.9096 56.7087 24.7431 56.7087 24.5545C56.7087 24.3659 56.6741 24.2025 56.605 24.0642C56.5421 23.9196 56.4352 23.8002 56.2844 23.7059C56.1398 23.6116 55.945 23.5425 55.6998 23.4985C55.4547 23.4482 55.1561 23.4231 54.8041 23.4231H50.467V25.6859ZM64.3866 21.5374H66.7438V27.5716H64.3866V21.5374ZM77.6761 27.7602C76.3059 27.7602 75.2027 27.6408 74.3667 27.4019C73.5307 27.1568 72.921 26.7985 72.5375 26.3271C72.1604 25.8494 71.9718 25.2585 71.9718 24.5545C71.9718 23.8505 72.1604 23.2628 72.5375 22.7914C72.921 22.3137 73.5307 21.9554 74.3667 21.7165C75.2027 21.4714 76.3059 21.3488 77.6761 21.3488C79.0464 21.3488 80.1496 21.4714 80.9855 21.7165C81.8216 21.9554 82.4281 22.3137 82.8053 22.7914C83.1887 23.2628 83.3804 23.8505 83.3804 24.5545C83.3804 25.2585 83.1887 25.8494 82.8053 26.3271C82.4281 26.7985 81.8216 27.1568 80.9855 27.4019C80.1496 27.6408 79.0464 27.7602 77.6761 27.7602ZM77.6761 25.9688C78.3236 25.9688 78.883 25.9311 79.3544 25.8556C79.8258 25.774 80.1904 25.6325 80.4481 25.4314C80.7058 25.2239 80.8347 24.9316 80.8347 24.5545C80.8347 24.1774 80.7058 23.8882 80.4481 23.6871C80.1904 23.4796 79.8258 23.3382 79.3544 23.2628C78.883 23.1811 78.3236 23.1402 77.6761 23.1402C77.0287 23.1402 76.4598 23.1811 75.9695 23.2628C75.4856 23.3382 75.1053 23.4796 74.8287 23.6871C74.5584 23.8882 74.4232 24.1774 74.4232 24.5545C74.4232 24.9316 74.5584 25.2239 74.8287 25.4314C75.1053 25.6325 75.4856 25.774 75.9695 25.8556C76.4598 25.9311 77.0287 25.9688 77.6761 25.9688Z" fill="#00BDFC"/>
<path d="M4.09717 25.3559H6.67117C6.71517 25.4879 6.84402 25.6011 7.05774 25.6954C7.27145 25.7834 7.55745 25.8525 7.91574 25.9028C8.28031 25.9468 8.70145 25.9688 9.17917 25.9688C9.65058 25.9688 10.0215 25.9562 10.2917 25.9311C10.5683 25.8996 10.7632 25.8494 10.8763 25.7802C10.9894 25.7048 11.046 25.6042 11.046 25.4785C11.046 25.3591 10.9549 25.2679 10.7726 25.2051C10.5903 25.1359 10.2666 25.0888 9.80144 25.0636C9.33631 25.0385 8.68259 25.0259 7.84031 25.0259C7.21173 25.0259 6.66802 24.9976 6.20917 24.9411C5.7566 24.8782 5.38259 24.784 5.08717 24.6582C4.79802 24.5262 4.58431 24.3628 4.44603 24.1679C4.30773 23.9668 4.2386 23.728 4.2386 23.4514C4.2386 22.9737 4.39888 22.5808 4.71945 22.2728C5.04631 21.9585 5.53659 21.7259 6.19031 21.5751C6.85031 21.418 7.67373 21.3394 8.6606 21.3394C10.1063 21.3394 11.2095 21.55 11.97 21.9711C12.7369 22.3859 13.1203 22.9862 13.1203 23.7719H10.6783C10.6468 23.5645 10.452 23.4074 10.0937 23.3005C9.73544 23.1874 9.22631 23.1308 8.56631 23.1308C7.91259 23.1308 7.42545 23.1685 7.10488 23.2439C6.79059 23.3194 6.63345 23.4482 6.63345 23.6305C6.63345 23.7248 6.67745 23.8002 6.76545 23.8568C6.85345 23.9134 7.00431 23.9605 7.21803 23.9982C7.43802 24.0297 7.74603 24.0516 8.14203 24.0642C8.53803 24.0768 9.04088 24.0831 9.65058 24.0831C10.3232 24.0831 10.8952 24.1176 11.3666 24.1868C11.838 24.2496 12.2183 24.3471 12.5074 24.4791C12.8029 24.6111 13.0166 24.7808 13.1486 24.9882C13.2806 25.1894 13.3466 25.4282 13.3466 25.7048C13.3466 26.1825 13.1957 26.5722 12.894 26.8739C12.5923 27.1756 12.1146 27.3988 11.4609 27.5434C10.8071 27.688 9.95229 27.7602 8.89631 27.7602C8.29917 27.7602 7.74916 27.7257 7.24631 27.6565C6.74973 27.5873 6.30659 27.4868 5.91688 27.3548C5.52717 27.2165 5.19717 27.0499 4.92688 26.8551C4.65659 26.6539 4.44916 26.4308 4.3046 26.1856C4.16631 25.9342 4.09717 25.6576 4.09717 25.3559ZM17.4876 21.5374H27.2933V23.3288H17.4876V21.5374ZM21.2119 23.2062H23.569V27.5716H21.2119V23.2062ZM40.5704 24.1302V21.5374H42.9275V24.5545C42.9275 25.0888 42.827 25.5445 42.6258 25.9216C42.431 26.2925 42.1576 26.6005 41.8055 26.8456C41.4536 27.0845 41.0482 27.2699 40.5892 27.4019C40.1304 27.5339 39.637 27.625 39.109 27.6754C38.5873 27.7319 38.0561 27.7602 37.5155 27.7602C36.9436 27.7602 36.3904 27.7319 35.8561 27.6754C35.3218 27.625 34.8253 27.5339 34.3664 27.4019C33.9138 27.2699 33.5178 27.0845 33.1784 26.8456C32.839 26.6005 32.5719 26.2925 32.377 25.9216C32.1884 25.5445 32.0941 25.0888 32.0941 24.5545V21.5374H34.4512V24.1302C34.4512 24.6331 34.5738 25.0165 34.819 25.2805C35.0641 25.5445 35.413 25.7268 35.8655 25.8274C36.3244 25.9216 36.8744 25.9688 37.5155 25.9688C38.1378 25.9688 38.6784 25.9216 39.1372 25.8274C39.5962 25.7268 39.9481 25.5445 40.1932 25.2805C40.4447 25.0165 40.5704 24.6331 40.5704 24.1302ZM54.8984 21.5374C55.747 21.5374 56.4478 21.619 57.001 21.7825C57.5541 21.946 57.9878 22.1691 58.3021 22.4519C58.6164 22.7348 58.8364 23.0585 58.9621 23.4231C59.0941 23.7814 59.1601 24.1585 59.1601 24.5545C59.1601 24.9505 59.0878 25.3308 58.9432 25.6954C58.7986 26.0536 58.5598 26.3742 58.2267 26.6571C57.8998 26.9399 57.463 27.163 56.9161 27.3265C56.3755 27.49 55.703 27.5716 54.8984 27.5716H48.1098V21.5374H54.8984ZM50.467 25.6859H54.8041C55.1561 25.6859 55.4547 25.6639 55.6998 25.6199C55.945 25.5696 56.1398 25.4974 56.2844 25.4031C56.4352 25.3088 56.5421 25.1925 56.605 25.0542C56.6741 24.9096 56.7087 24.7431 56.7087 24.5545C56.7087 24.3659 56.6741 24.2025 56.605 24.0642C56.5421 23.9196 56.4352 23.8002 56.2844 23.7059C56.1398 23.6116 55.945 23.5425 55.6998 23.4985C55.4547 23.4482 55.1561 23.4231 54.8041 23.4231H50.467V25.6859ZM64.3866 21.5374H66.7438V27.5716H64.3866V21.5374ZM77.6761 27.7602C76.3059 27.7602 75.2027 27.6408 74.3667 27.4019C73.5307 27.1568 72.921 26.7985 72.5375 26.3271C72.1604 25.8494 71.9718 25.2585 71.9718 24.5545C71.9718 23.8505 72.1604 23.2628 72.5375 22.7914C72.921 22.3137 73.5307 21.9554 74.3667 21.7165C75.2027 21.4714 76.3059 21.3488 77.6761 21.3488C79.0464 21.3488 80.1496 21.4714 80.9855 21.7165C81.8216 21.9554 82.4281 22.3137 82.8053 22.7914C83.1887 23.2628 83.3804 23.8505 83.3804 24.5545C83.3804 25.2585 83.1887 25.8494 82.8053 26.3271C82.4281 26.7985 81.8216 27.1568 80.9855 27.4019C80.1496 27.6408 79.0464 27.7602 77.6761 27.7602ZM77.6761 25.9688C78.3236 25.9688 78.883 25.9311 79.3544 25.8556C79.8258 25.774 80.1904 25.6325 80.4481 25.4314C80.7058 25.2239 80.8347 24.9316 80.8347 24.5545C80.8347 24.1774 80.7058 23.8882 80.4481 23.6871C80.1904 23.4796 79.8258 23.3382 79.3544 23.2628C78.883 23.1811 78.3236 23.1402 77.6761 23.1402C77.0287 23.1402 76.4598 23.1811 75.9695 23.2628C75.4856 23.3382 75.1053 23.4796 74.8287 23.6871C74.5584 23.8882 74.4232 24.1774 74.4232 24.5545C74.4232 24.9316 74.5584 25.2239 74.8287 25.4314C75.1053 25.6325 75.4856 25.774 75.9695 25.8556C76.4598 25.9311 77.0287 25.9688 77.6761 25.9688Z" fill="#6D2EF5"/>
<path d="M4.09717 25.3559H6.67117C6.71517 25.4879 6.84402 25.6011 7.05774 25.6954C7.27145 25.7834 7.55745 25.8525 7.91574 25.9028C8.28031 25.9468 8.70145 25.9688 9.17917 25.9688C9.65058 25.9688 10.0215 25.9562 10.2917 25.9311C10.5683 25.8996 10.7632 25.8494 10.8763 25.7802C10.9894 25.7048 11.046 25.6042 11.046 25.4785C11.046 25.3591 10.9549 25.2679 10.7726 25.2051C10.5903 25.1359 10.2666 25.0888 9.80144 25.0636C9.33631 25.0385 8.68259 25.0259 7.84031 25.0259C7.21173 25.0259 6.66802 24.9976 6.20917 24.9411C5.7566 24.8782 5.38259 24.784 5.08717 24.6582C4.79802 24.5262 4.58431 24.3628 4.44603 24.1679C4.30773 23.9668 4.2386 23.728 4.2386 23.4514C4.2386 22.9737 4.39888 22.5808 4.71945 22.2728C5.04631 21.9585 5.53659 21.7259 6.19031 21.5751C6.85031 21.418 7.67373 21.3394 8.6606 21.3394C10.1063 21.3394 11.2095 21.55 11.97 21.9711C12.7369 22.3859 13.1203 22.9862 13.1203 23.7719H10.6783C10.6468 23.5645 10.452 23.4074 10.0937 23.3005C9.73544 23.1874 9.22631 23.1308 8.56631 23.1308C7.91259 23.1308 7.42545 23.1685 7.10488 23.2439C6.79059 23.3194 6.63345 23.4482 6.63345 23.6305C6.63345 23.7248 6.67745 23.8002 6.76545 23.8568C6.85345 23.9134 7.00431 23.9605 7.21803 23.9982C7.43802 24.0297 7.74603 24.0516 8.14203 24.0642C8.53803 24.0768 9.04088 24.0831 9.65058 24.0831C10.3232 24.0831 10.8952 24.1176 11.3666 24.1868C11.838 24.2496 12.2183 24.3471 12.5074 24.4791C12.8029 24.6111 13.0166 24.7808 13.1486 24.9882C13.2806 25.1894 13.3466 25.4282 13.3466 25.7048C13.3466 26.1825 13.1957 26.5722 12.894 26.8739C12.5923 27.1756 12.1146 27.3988 11.4609 27.5434C10.8071 27.688 9.95229 27.7602 8.89631 27.7602C8.29917 27.7602 7.74916 27.7257 7.24631 27.6565C6.74973 27.5873 6.30659 27.4868 5.91688 27.3548C5.52717 27.2165 5.19717 27.0499 4.92688 26.8551C4.65659 26.6539 4.44916 26.4308 4.3046 26.1856C4.16631 25.9342 4.09717 25.6576 4.09717 25.3559ZM17.4876 21.5374H27.2933V23.3288H17.4876V21.5374ZM21.2119 23.2062H23.569V27.5716H21.2119V23.2062ZM40.5704 24.1302V21.5374H42.9275V24.5545C42.9275 25.0888 42.827 25.5445 42.6258 25.9216C42.431 26.2925 42.1576 26.6005 41.8055 26.8456C41.4536 27.0845 41.0482 27.2699 40.5892 27.4019C40.1304 27.5339 39.637 27.625 39.109 27.6754C38.5873 27.7319 38.0561 27.7602 37.5155 27.7602C36.9436 27.7602 36.3904 27.7319 35.8561 27.6754C35.3218 27.625 34.8253 27.5339 34.3664 27.4019C33.9138 27.2699 33.5178 27.0845 33.1784 26.8456C32.839 26.6005 32.5719 26.2925 32.377 25.9216C32.1884 25.5445 32.0941 25.0888 32.0941 24.5545V21.5374H34.4512V24.1302C34.4512 24.6331 34.5738 25.0165 34.819 25.2805C35.0641 25.5445 35.413 25.7268 35.8655 25.8274C36.3244 25.9216 36.8744 25.9688 37.5155 25.9688C38.1378 25.9688 38.6784 25.9216 39.1372 25.8274C39.5962 25.7268 39.9481 25.5445 40.1932 25.2805C40.4447 25.0165 40.5704 24.6331 40.5704 24.1302ZM54.8984 21.5374C55.747 21.5374 56.4478 21.619 57.001 21.7825C57.5541 21.946 57.9878 22.1691 58.3021 22.4519C58.6164 22.7348 58.8364 23.0585 58.9621 23.4231C59.0941 23.7814 59.1601 24.1585 59.1601 24.5545C59.1601 24.9505 59.0878 25.3308 58.9432 25.6954C58.7986 26.0536 58.5598 26.3742 58.2267 26.6571C57.8998 26.9399 57.463 27.163 56.9161 27.3265C56.3755 27.49 55.703 27.5716 54.8984 27.5716H48.1098V21.5374H54.8984ZM50.467 25.6859H54.8041C55.1561 25.6859 55.4547 25.6639 55.6998 25.6199C55.945 25.5696 56.1398 25.4974 56.2844 25.4031C56.4352 25.3088 56.5421 25.1925 56.605 25.0542C56.6741 24.9096 56.7087 24.7431 56.7087 24.5545C56.7087 24.3659 56.6741 24.2025 56.605 24.0642C56.5421 23.9196 56.4352 23.8002 56.2844 23.7059C56.1398 23.6116 55.945 23.5425 55.6998 23.4985C55.4547 23.4482 55.1561 23.4231 54.8041 23.4231H50.467V25.6859ZM64.3866 21.5374H66.7438V27.5716H64.3866V21.5374ZM77.6761 27.7602C76.3059 27.7602 75.2027 27.6408 74.3667 27.4019C73.5307 27.1568 72.921 26.7985 72.5375 26.3271C72.1604 25.8494 71.9718 25.2585 71.9718 24.5545C71.9718 23.8505 72.1604 23.2628 72.5375 22.7914C72.921 22.3137 73.5307 21.9554 74.3667 21.7165C75.2027 21.4714 76.3059 21.3488 77.6761 21.3488C79.0464 21.3488 80.1496 21.4714 80.9855 21.7165C81.8216 21.9554 82.4281 22.3137 82.8053 22.7914C83.1887 23.2628 83.3804 23.8505 83.3804 24.5545C83.3804 25.2585 83.1887 25.8494 82.8053 26.3271C82.4281 26.7985 81.8216 27.1568 80.9855 27.4019C80.1496 27.6408 79.0464 27.7602 77.6761 27.7602ZM77.6761 25.9688C78.3236 25.9688 78.883 25.9311 79.3544 25.8556C79.8258 25.774 80.1904 25.6325 80.4481 25.4314C80.7058 25.2239 80.8347 24.9316 80.8347 24.5545C80.8347 24.1774 80.7058 23.8882 80.4481 23.6871C80.1904 23.4796 79.8258 23.3382 79.3544 23.2628C78.883 23.1811 78.3236 23.1402 77.6761 23.1402C77.0287 23.1402 76.4598 23.1811 75.9695 23.2628C75.4856 23.3382 75.1053 23.4796 74.8287 23.6871C74.5584 23.8882 74.4232 24.1774 74.4232 24.5545C74.4232 24.9316 74.5584 25.2239 74.8287 25.4314C75.1053 25.6325 75.4856 25.774 75.9695 25.8556C76.4598 25.9311 77.0287 25.9688 77.6761 25.9688Z" fill="black"/>
</svg>
