<svg width="20" height="20" viewBox="0 0 20 20" fill="none" xmlns="http://www.w3.org/2000/svg">
<path fill-rule="evenodd" clip-rule="evenodd" d="M2.5 4.75C2.5 4.15326 2.73705 3.58097 3.15901 3.15901C3.58097 2.73705 4.15326 2.5 4.75 2.5H15.25C15.8467 2.5 16.419 2.73705 16.841 3.15901C17.2629 3.58097 17.5 4.15326 17.5 4.75V9.625C17.4999 9.68826 17.4919 9.75126 17.476 9.8125C17.4919 9.87374 17.4999 9.93674 17.5 10V15.25C17.5 15.8467 17.2629 16.419 16.841 16.841C16.419 17.2629 15.8467 17.5 15.25 17.5H4.75C4.15326 17.5 3.58097 17.2629 3.15901 16.841C2.73705 16.419 2.5 15.8467 2.5 15.25V13C2.50006 12.9367 2.50812 12.8737 2.524 12.8125C2.50812 12.7513 2.50006 12.6883 2.5 12.625V4.75ZM4.7455 12.1225C4.4845 12.1275 4.236 12.139 4 12.157V4.75C4 4.55109 4.07902 4.36032 4.21967 4.21967C4.36032 4.07902 4.55109 4 4.75 4H15.25C15.4489 4 15.6397 4.07902 15.7803 4.21967C15.921 4.36032 16 4.55109 16 4.75V9.262C12.7773 9.36625 10.45 10.1425 8.815 11.2292C9.4345 11.449 10.1275 11.7618 10.807 12.1713C11.8563 12.8013 12.9228 13.6863 13.6405 14.8585C13.6919 14.9425 13.7263 15.0358 13.7416 15.1331C13.757 15.2304 13.753 15.3298 13.73 15.4255C13.7069 15.5213 13.6652 15.6116 13.6073 15.6912C13.5493 15.7709 13.4763 15.8383 13.3923 15.8898C13.3082 15.9412 13.2149 15.9755 13.1176 15.9909C13.0203 16.0062 12.921 16.0023 12.8252 15.9792C12.7295 15.9562 12.6392 15.9145 12.5595 15.8565C12.4799 15.7986 12.4124 15.7255 12.361 15.6415C11.809 14.7392 10.9525 14.008 10.0345 13.4567C9.118 12.9062 8.18575 12.5628 7.53925 12.4128C6.62849 12.205 5.69602 12.1078 4.762 12.1233H4.7455V12.1225ZM6.2335 5.866C6.5677 5.6303 6.96605 5.50258 7.375 5.5C7.6825 5.5 8.12725 5.58625 8.5165 5.866C8.944 6.1735 9.25 6.6805 9.25 7.375C9.25 8.0695 8.944 8.57575 8.5165 8.88325C8.18239 9.11921 7.78403 9.2472 7.375 9.25C7.0675 9.25 6.62275 9.16375 6.2335 8.88325C5.806 8.57575 5.5 8.07025 5.5 7.375C5.5 6.6805 5.806 6.17425 6.2335 5.866Z" fill="white"/>
</svg>
