<svg width="23" height="24" viewBox="0 0 23 24" fill="none" xmlns="http://www.w3.org/2000/svg">
<path d="M11.385 18.5644C15.6014 18.5644 19.02 15.416 19.02 11.5322C19.02 7.64842 15.6014 4.5 11.385 4.5C7.16856 4.5 3.75 7.64842 3.75 11.5322C3.75 13.3003 4.4591 14.9177 5.63011 16.1534C5.53754 17.1741 5.23214 18.2932 4.89429 19.133C4.8189 19.3199 4.96492 19.5288 5.15484 19.4967C7.3079 19.125 8.58771 18.5544 9.14411 18.257C9.87495 18.4629 10.6284 18.5663 11.385 18.5644ZM11.385 9.51598C12.9731 7.7971 16.9442 10.8049 11.385 14.6716C5.82576 10.8039 9.7969 7.7971 11.385 9.51598Z" fill="black"/>
</svg>
