<svg viewBox="0 0 24 24" fill="none" xmlns="http://www.w3.org/2000/svg">
<g clip-path="url(#clip0_1453_52571)">
<path d="M14.9548 10.6767C15.0765 10.6767 15.1971 10.6811 15.3165 10.6899C15.3683 10.5476 15.3947 10.3961 15.3959 10.2355V6.70621C15.3959 6.3552 15.2565 6.01856 15.0083 5.77036C14.7601 5.52215 14.4234 5.38271 14.0724 5.38271H11.4254V4.94155C11.4279 4.88295 11.4182 4.82447 11.3969 4.76981C11.3757 4.71516 11.3432 4.66552 11.3018 4.62405C11.2603 4.58257 11.2107 4.55016 11.156 4.52888C11.1013 4.50759 11.0429 4.49789 10.9843 4.50038C10.7407 4.50038 10.5431 4.70332 10.5431 4.94155V5.38271H7.89611C7.5451 5.38271 7.20846 5.52215 6.96026 5.77036C6.71205 6.01856 6.57261 6.3552 6.57261 6.70621V10.2355C6.57261 10.5865 6.71205 10.9232 6.96026 11.1714C7.20846 11.4196 7.5451 11.559 7.89611 11.559H12.1639C12.9536 11.0032 13.9162 10.6767 14.9548 10.6767ZM8.33727 8.47087C8.33727 8.23686 8.43023 8.01244 8.5957 7.84697C8.76117 7.6815 8.9856 7.58854 9.2196 7.58854C9.45361 7.58854 9.67804 7.6815 9.84351 7.84697C10.009 8.01244 10.1019 8.23686 10.1019 8.47087C10.1019 8.70488 10.009 8.9293 9.84351 9.09477C9.67804 9.26024 9.45361 9.3532 9.2196 9.3532C8.9856 9.3532 8.76117 9.26024 8.5957 9.09477C8.43023 8.9293 8.33727 8.70488 8.33727 8.47087ZM11.8666 8.47087C11.8666 8.23686 11.9596 8.01244 12.125 7.84697C12.2905 7.6815 12.5149 7.58854 12.7489 7.58854C12.9829 7.58854 13.2074 7.6815 13.3728 7.84697C13.5383 8.01244 13.6313 8.23686 13.6313 8.47087C13.6313 8.70488 13.5383 8.9293 13.3728 9.09477C13.2074 9.26024 12.9829 9.3532 12.7489 9.3532C12.5149 9.3532 12.2905 9.26024 12.125 9.09477C11.9596 8.9293 11.8666 8.70488 11.8666 8.47087ZM10.1019 15.5295C10.1019 14.5545 10.3896 13.6457 10.8846 12.8852H6.84614C6.42273 12.8854 6.01675 13.0538 5.71744 13.3532C5.41814 13.6527 5.25 14.0588 5.25 14.4822V15.0901H5.25441C5.28441 15.7783 5.47323 16.6404 6.24527 17.3445C7.08789 18.1147 8.54374 18.6177 10.9843 18.6177C11.0607 18.6177 11.136 18.6171 11.2101 18.6159C10.4925 17.7476 10.1005 16.656 10.1019 15.5295ZM18.9252 15.5295C18.9252 16.5826 18.5069 17.5925 17.7623 18.3371C17.0177 19.0817 16.0078 19.5 14.9548 19.5C13.9017 19.5 12.8918 19.0817 12.1472 18.3371C11.4026 17.5925 10.9843 16.5826 10.9843 15.5295C10.9843 14.4765 11.4026 13.4666 12.1472 12.722C12.8918 11.9773 13.9017 11.559 14.9548 11.559C16.0078 11.559 17.0177 11.9773 17.7623 12.722C18.5069 13.4666 18.9252 14.4765 18.9252 15.5295ZM15.3959 13.7649C15.3959 13.6478 15.3494 13.5356 15.2667 13.4529C15.184 13.3702 15.0718 13.3237 14.9548 13.3237C14.8377 13.3237 14.7255 13.3702 14.6428 13.4529C14.5601 13.5356 14.5136 13.6478 14.5136 13.7649V15.0883H13.1901C13.0731 15.0883 12.9609 15.1348 12.8781 15.2176C12.7954 15.3003 12.7489 15.4125 12.7489 15.5295C12.7489 15.6465 12.7954 15.7587 12.8781 15.8415C12.9609 15.9242 13.0731 15.9707 13.1901 15.9707H14.5136V17.2942C14.5136 17.4112 14.5601 17.5234 14.6428 17.6061C14.7255 17.6889 14.8377 17.7353 14.9548 17.7353C15.0718 17.7353 15.184 17.6889 15.2667 17.6061C15.3494 17.5234 15.3959 17.4112 15.3959 17.2942V15.9707H16.7194C16.8364 15.9707 16.9486 15.9242 17.0314 15.8415C17.1141 15.7587 17.1606 15.6465 17.1606 15.5295C17.1606 15.4125 17.1141 15.3003 17.0314 15.2176C16.9486 15.1348 16.8364 15.0883 16.7194 15.0883H15.3959V13.7649Z" fill="white"/>
<path d="M14.9548 10.6767C15.0765 10.6767 15.1971 10.6811 15.3165 10.6899C15.3683 10.5476 15.3947 10.3961 15.3959 10.2355V6.70621C15.3959 6.3552 15.2565 6.01856 15.0083 5.77036C14.7601 5.52215 14.4234 5.38271 14.0724 5.38271H11.4254V4.94155C11.4279 4.88295 11.4182 4.82447 11.3969 4.76981C11.3757 4.71516 11.3432 4.66552 11.3018 4.62405C11.2603 4.58257 11.2107 4.55016 11.156 4.52888C11.1013 4.50759 11.0429 4.49789 10.9843 4.50038C10.7407 4.50038 10.5431 4.70332 10.5431 4.94155V5.38271H7.89611C7.5451 5.38271 7.20846 5.52215 6.96026 5.77036C6.71205 6.01856 6.57261 6.3552 6.57261 6.70621V10.2355C6.57261 10.5865 6.71205 10.9232 6.96026 11.1714C7.20846 11.4196 7.5451 11.559 7.89611 11.559H12.1639C12.9536 11.0032 13.9162 10.6767 14.9548 10.6767ZM8.33727 8.47087C8.33727 8.23686 8.43023 8.01244 8.5957 7.84697C8.76117 7.6815 8.9856 7.58854 9.2196 7.58854C9.45361 7.58854 9.67804 7.6815 9.84351 7.84697C10.009 8.01244 10.1019 8.23686 10.1019 8.47087C10.1019 8.70488 10.009 8.9293 9.84351 9.09477C9.67804 9.26024 9.45361 9.3532 9.2196 9.3532C8.9856 9.3532 8.76117 9.26024 8.5957 9.09477C8.43023 8.9293 8.33727 8.70488 8.33727 8.47087ZM11.8666 8.47087C11.8666 8.23686 11.9596 8.01244 12.125 7.84697C12.2905 7.6815 12.5149 7.58854 12.7489 7.58854C12.9829 7.58854 13.2074 7.6815 13.3728 7.84697C13.5383 8.01244 13.6313 8.23686 13.6313 8.47087C13.6313 8.70488 13.5383 8.9293 13.3728 9.09477C13.2074 9.26024 12.9829 9.3532 12.7489 9.3532C12.5149 9.3532 12.2905 9.26024 12.125 9.09477C11.9596 8.9293 11.8666 8.70488 11.8666 8.47087ZM10.1019 15.5295C10.1019 14.5545 10.3896 13.6457 10.8846 12.8852H6.84614C6.42273 12.8854 6.01675 13.0538 5.71744 13.3532C5.41814 13.6527 5.25 14.0588 5.25 14.4822V15.0901H5.25441C5.28441 15.7783 5.47323 16.6404 6.24527 17.3445C7.08789 18.1147 8.54374 18.6177 10.9843 18.6177C11.0607 18.6177 11.136 18.6171 11.2101 18.6159C10.4925 17.7476 10.1005 16.656 10.1019 15.5295ZM18.9252 15.5295C18.9252 16.5826 18.5069 17.5925 17.7623 18.3371C17.0177 19.0817 16.0078 19.5 14.9548 19.5C13.9017 19.5 12.8918 19.0817 12.1472 18.3371C11.4026 17.5925 10.9843 16.5826 10.9843 15.5295C10.9843 14.4765 11.4026 13.4666 12.1472 12.722C12.8918 11.9773 13.9017 11.559 14.9548 11.559C16.0078 11.559 17.0177 11.9773 17.7623 12.722C18.5069 13.4666 18.9252 14.4765 18.9252 15.5295ZM15.3959 13.7649C15.3959 13.6478 15.3494 13.5356 15.2667 13.4529C15.184 13.3702 15.0718 13.3237 14.9548 13.3237C14.8377 13.3237 14.7255 13.3702 14.6428 13.4529C14.5601 13.5356 14.5136 13.6478 14.5136 13.7649V15.0883H13.1901C13.0731 15.0883 12.9609 15.1348 12.8781 15.2176C12.7954 15.3003 12.7489 15.4125 12.7489 15.5295C12.7489 15.6465 12.7954 15.7587 12.8781 15.8415C12.9609 15.9242 13.0731 15.9707 13.1901 15.9707H14.5136V17.2942C14.5136 17.4112 14.5601 17.5234 14.6428 17.6061C14.7255 17.6889 14.8377 17.7353 14.9548 17.7353C15.0718 17.7353 15.184 17.6889 15.2667 17.6061C15.3494 17.5234 15.3959 17.4112 15.3959 17.2942V15.9707H16.7194C16.8364 15.9707 16.9486 15.9242 17.0314 15.8415C17.1141 15.7587 17.1606 15.6465 17.1606 15.5295C17.1606 15.4125 17.1141 15.3003 17.0314 15.2176C16.9486 15.1348 16.8364 15.0883 16.7194 15.0883H15.3959V13.7649Z" fill="url(#paint0_linear_1453_52571)"/>
</g>
<rect x="0.5" y="0.5" width="23" height="23" rx="2.5" stroke="url(#paint1_linear_1453_52571)"/>
<defs>
<linearGradient id="paint0_linear_1453_52571" x1="5.25" y1="12" x2="18.9252" y2="12" gradientUnits="userSpaceOnUse">
<stop stop-color="#C7FF8C"/>
<stop offset="0.43" stop-color="#E8C4EA"/>
<stop offset="1" stop-color="#39EDFF"/>
</linearGradient>
<linearGradient id="paint1_linear_1453_52571" x1="0" y1="12" x2="24" y2="12" gradientUnits="userSpaceOnUse">
<stop stop-color="#C7FF8C"/>
<stop offset="0.43" stop-color="#E8C4EA"/>
<stop offset="1" stop-color="#39EDFF"/>
</linearGradient>
<clipPath id="clip0_1453_52571">
<rect width="24" height="24" rx="3" fill="white"/>
</clipPath>
</defs>
</svg>
