<svg width="23" height="24" viewBox="0 0 23 24" fill="none" xmlns="http://www.w3.org/2000/svg">
<path d="M18.65 4.5H4.85C4.51812 4.5 4.25 4.76812 4.25 5.1V18.9C4.25 19.2319 4.51812 19.5 4.85 19.5H18.65C18.9819 19.5 19.25 19.2319 19.25 18.9V5.1C19.25 4.76812 18.9819 4.5 18.65 4.5ZM11.7706 12.1144L8.17062 15.1331C8.07313 15.2156 7.925 15.1462 7.925 15.0187V13.8431C7.925 13.8 7.94562 13.7569 7.97937 13.7287L10.0381 12L7.97937 10.2712C7.96214 10.2576 7.94827 10.2402 7.93884 10.2204C7.92941 10.2006 7.92468 10.1788 7.925 10.1569V8.98125C7.925 8.85375 8.07313 8.78437 8.17062 8.86687L11.7706 11.8837C11.8437 11.9437 11.8437 12.0544 11.7706 12.1144ZM15.575 15.0187C15.575 15.1012 15.5112 15.1687 15.4344 15.1687H11.9656C11.8887 15.1687 11.825 15.1012 11.825 15.0187V14.1187C11.825 14.0362 11.8887 13.9687 11.9656 13.9687H15.4344C15.5112 13.9687 15.575 14.0362 15.575 14.1187V15.0187Z" fill="black"/>
</svg>
