<svg width="390" height="86" viewBox="0 0 390 86" fill="none" xmlns="http://www.w3.org/2000/svg">
<g clip-path="url(#clip0_1451_46967)">
<rect width="198.461" height="50" transform="matrix(-0.766044 0.642788 -0.985175 0.171555 28.2524 -34.645)" fill="white" fill-opacity="0.1"/>
<rect width="198.461" height="50" transform="matrix(-0.766044 0.642788 -0.985175 0.171555 104.541 -34.645)" fill="white" fill-opacity="0.1"/>
<rect width="198.461" height="50" transform="matrix(-0.766044 0.642788 -0.985175 0.171555 180.83 -34.645)" fill="white" fill-opacity="0.1"/>
<rect width="198.461" height="50" transform="matrix(-0.766044 0.642788 -0.985175 0.171555 257.118 -34.645)" fill="white" fill-opacity="0.1"/>
<rect width="198.461" height="50" transform="matrix(-0.766044 0.642788 -0.985175 0.171555 333.407 -34.645)" fill="white" fill-opacity="0.1"/>
<rect width="198.461" height="50" transform="matrix(-0.766044 0.642788 -0.985175 0.171555 409.695 -34.645)" fill="white" fill-opacity="0.1"/>
<rect width="198.461" height="50" transform="matrix(-0.766044 0.642788 -0.985175 0.171555 485.984 -34.645)" fill="white" fill-opacity="0.1"/>
<rect width="198.461" height="50" transform="matrix(-0.766044 0.642788 -0.985175 0.171555 562.272 -34.645)" fill="white" fill-opacity="0.1"/>
</g>
<defs>
<clipPath id="clip0_1451_46967">
<rect width="390" height="86" fill="white"/>
</clipPath>
</defs>
</svg>
