<svg width="24" height="24" viewBox="0 0 24 24" fill="none" xmlns="http://www.w3.org/2000/svg">
<path d="M18.9607 21H5.03927C3.91555 21 3 20.1629 3 19.1354V4.86464C3 3.83715 3.91555 3 5.03927 3H16.2553C17.379 3 18.2946 3.83715 18.2946 4.86464V14.4986C18.2946 15.5261 17.379 16.3633 16.2553 16.3633H5.36556C4.99164 16.3633 4.6858 16.6429 4.6858 16.9848V18.837C4.6858 19.1788 4.99164 19.4586 5.36556 19.4586H18.6344C19.1357 19.4586 19.3142 18.9768 19.3142 18.5262V3.93232C19.3142 3.58853 19.7267 3.31077 20.1027 3.31077C20.4787 3.31077 21 3.58853 21 3.93232V18.8246C21 19.448 20.8066 19.9861 20.4392 20.3785C20.0653 20.7785 19.5406 21 18.9607 21ZM5.36556 4.54144C4.99164 4.54144 4.6858 4.82108 4.6858 5.16298V14.9286C4.90419 14.8583 5.13401 14.8222 5.36556 14.8218H15.929C16.3028 14.8218 16.6088 14.5421 16.6088 14.2003V5.16298C16.6088 4.82108 16.3028 4.54144 15.929 4.54144H5.36556Z" fill="white"/>
<path d="M17.3333 18H6.66667C6.29792 18 6 17.7553 6 17.5323C6 17.3092 6.29792 17 6.66667 17H17.3333C17.7021 17 18 17.3092 18 17.5323C18 17.7553 17.7021 18 17.3333 18Z" fill="white"/>
</svg>
