<svg width="30" height="30" viewBox="0 0 30 30" fill="none" xmlns="http://www.w3.org/2000/svg">
<g clip-path="url(#clip0_1267_4438)">
<path d="M7.12811 1.10936C5.59883 1.30146 4.17707 1.99735 3.08721 3.08721C1.99735 4.17707 1.30146 5.59883 1.10936 7.12811C0.820898 9.30599 0.577149 12.032 0.577149 15.0002C0.577149 17.9699 0.822341 20.6945 1.10936 22.8723C1.30146 24.4016 1.99735 25.8234 3.08721 26.9132C4.17707 28.0031 5.59883 28.699 7.12811 28.8911C9.30599 29.1796 12.032 29.4233 15.0002 29.4233C17.9699 29.4233 20.6945 29.1781 22.8723 28.8911C24.4016 28.699 25.8234 28.0031 26.9132 26.9132C28.0031 25.8234 28.699 24.4016 28.8911 22.8723C29.1796 20.6945 29.4233 17.9685 29.4233 15.0002C29.4233 12.0305 29.1781 9.30599 28.8911 7.12811C28.699 5.59883 28.0031 4.17707 26.9132 3.08721C25.8234 1.99735 24.4016 1.30146 22.8723 1.10936C20.6945 0.820898 17.9685 0.577148 15.0002 0.577148C12.0305 0.577148 9.30599 0.82234 7.12811 1.10936Z" fill="#C7FF8C"/>
<path d="M8.93205 18.1831C9.20253 18.4535 9.56932 18.6054 9.95176 18.6054C10.3342 18.6054 10.701 18.4535 10.9715 18.1831L14.9998 14.1548L19.0282 18.1831C19.3002 18.4459 19.6646 18.5912 20.0427 18.5879C20.4209 18.5847 20.7826 18.433 21.0501 18.1656C21.3175 17.8981 21.4692 17.5364 21.4724 17.1582C21.4757 16.7801 21.3304 16.4157 21.0676 16.1437L16.0196 11.0956C15.7491 10.8252 15.3823 10.6733 14.9998 10.6733C14.6174 10.6733 14.2506 10.8252 13.9801 11.0956L8.93205 16.1437C8.66166 16.4142 8.50977 16.781 8.50977 17.1634C8.50977 17.5459 8.66166 17.9127 8.93205 18.1831Z" fill="black"/>
</g>
<defs>
<clipPath id="clip0_1267_4438">
<rect width="30" height="30" fill="white" transform="matrix(1.19249e-08 1 1 -1.19249e-08 0 0)"/>
</clipPath>
</defs>
</svg>
