<svg width="30" height="30" viewBox="0 0 30 30" fill="none" xmlns="http://www.w3.org/2000/svg">
<g clip-path="url(#clip0_1218_71833)">
<path d="M7.19344 28.3949L7.19344 28.3949L7.19043 28.3945C5.77137 28.2163 4.45208 27.5705 3.44077 26.5592C2.42945 25.5479 1.78372 24.2286 1.60546 22.8096L1.60547 22.8096L1.60503 22.8062C1.31878 20.6451 1.07715 17.9415 1.07715 14.9998C1.07715 12.0568 1.3202 9.35462 1.60508 7.19299L1.60546 7.18998C1.78372 5.77092 2.42945 4.45163 3.44077 3.44032C4.45208 2.429 5.77137 1.78326 7.19043 1.60502L7.19376 1.60458C9.35494 1.31833 12.0585 1.0767 15.0002 1.0767C17.9432 1.0767 20.6454 1.31974 22.807 1.60463L22.81 1.60501C24.2291 1.78326 25.5484 2.429 26.5597 3.44032C27.571 4.45163 28.2167 5.77092 28.395 7.18998L28.3954 7.19331C28.6817 9.35449 28.9233 12.058 28.9233 14.9998C28.9233 17.9428 28.6803 20.6449 28.3954 22.8066L28.395 22.8096C28.2167 24.2286 27.571 25.5479 26.5597 26.5592C25.5484 27.5705 24.2291 28.2163 22.81 28.3945L22.8067 28.395C20.6455 28.6812 17.942 28.9229 15.0002 28.9229C12.0572 28.9229 9.35507 28.6798 7.19344 28.3949Z" stroke="white"/>
<path d="M8.93205 11.8169C9.20253 11.5465 9.56932 11.3946 9.95176 11.3946C10.3342 11.3946 10.701 11.5465 10.9715 11.8169L14.9998 15.8452L19.0282 11.8169C19.3002 11.5541 19.6646 11.4088 20.0427 11.4121C20.4209 11.4153 20.7826 11.567 21.0501 11.8344C21.3175 12.1019 21.4692 12.4636 21.4724 12.8418C21.4757 13.2199 21.3304 13.5843 21.0676 13.8563L16.0196 18.9044C15.7491 19.1748 15.3823 19.3267 14.9998 19.3267C14.6174 19.3267 14.2506 19.1748 13.9801 18.9044L8.93205 13.8563C8.66166 13.5858 8.50977 13.219 8.50977 12.8366C8.50977 12.4541 8.66166 12.0873 8.93205 11.8169Z" fill="white"/>
</g>
<defs>
<clipPath id="clip0_1218_71833">
<rect width="30" height="30" fill="white" transform="translate(0 30) rotate(-90)"/>
</clipPath>
</defs>
</svg>
