<svg width="30" height="30" viewBox="0 0 30 30" fill="none" xmlns="http://www.w3.org/2000/svg">
<rect width="30" height="30" rx="2" fill="#E42575"/>
<path d="M19.1666 12.0552L20.3368 13.4301C20.4708 13.5846 20.5896 13.7116 20.6377 13.7839C20.9876 14.1317 21.1838 14.6018 21.1836 15.0916C21.1507 15.6695 20.7741 16.0631 20.4253 16.484L19.6064 17.4455L19.1792 17.9437C19.1639 17.9609 19.154 17.9821 19.1508 18.0048C19.1476 18.0275 19.1512 18.0505 19.1611 18.0712C19.1711 18.0919 19.1869 18.1092 19.2068 18.1211C19.2266 18.133 19.2496 18.1388 19.2727 18.1381H23.5418C24.1939 18.1381 25.0154 18.686 24.9674 19.518C24.9661 19.8962 24.813 20.2585 24.5417 20.5258C24.2704 20.7932 23.9027 20.944 23.519 20.9453H16.8337C16.3939 20.9453 15.2109 20.9927 14.8798 19.9838C14.8094 19.773 14.7998 19.5471 14.852 19.3312C14.9483 19.012 15.1005 18.7118 15.3019 18.4444C15.6381 17.9462 16.0021 17.4481 16.361 16.9648C16.8235 16.3321 17.2987 15.7193 17.7663 15.0742C17.7829 15.0532 17.7919 15.0273 17.7919 15.0007C17.7919 14.9741 17.7829 14.9482 17.7663 14.9272L16.0678 12.9345C16.0567 12.92 16.0424 12.9083 16.0259 12.9002C16.0095 12.8922 15.9914 12.888 15.973 12.888C15.9546 12.888 15.9365 12.8922 15.92 12.9002C15.9036 12.9083 15.8893 12.92 15.8782 12.9345C15.4232 13.5398 13.4315 16.22 13.0069 16.763C12.5822 17.306 11.5358 17.3359 10.957 16.763L8.30055 14.1351C8.28357 14.1183 8.26193 14.1069 8.23836 14.1022C8.21478 14.0976 8.19035 14.1 8.16814 14.109C8.14593 14.1181 8.12696 14.1335 8.11364 14.1532C8.10031 14.1729 8.09322 14.1961 8.09328 14.2198V19.2739C8.09954 19.6325 7.99177 19.9841 7.78508 20.2794C7.57839 20.5747 7.28315 20.7988 6.94071 20.9204C6.72191 20.9954 6.48806 21.0179 6.25868 20.9858C6.0293 20.9537 5.81103 20.868 5.62207 20.7359C5.43311 20.6038 5.27894 20.429 5.1724 20.2263C5.06587 20.0236 5.01007 19.7986 5.00964 19.5703V10.4834C5.02487 10.1559 5.14444 9.84148 5.35135 9.58481C5.55825 9.32813 5.84198 9.14224 6.16222 9.05356C6.43691 8.98144 6.72606 8.98216 7.00038 9.05566C7.27469 9.12915 7.52442 9.27279 7.72426 9.47204L11.8088 13.5024C11.821 13.5146 11.8358 13.5241 11.8522 13.53C11.8685 13.536 11.886 13.5384 11.9033 13.5369C11.9207 13.5355 11.9375 13.5303 11.9527 13.5218C11.9678 13.5132 11.9808 13.5015 11.9908 13.4874L14.8925 9.52933C15.0265 9.36865 15.1946 9.2388 15.385 9.14887C15.5754 9.05894 15.7834 9.01111 15.9945 9.00873H23.5418C23.7484 9.00906 23.9525 9.05286 24.1405 9.13718C24.3284 9.22151 24.496 9.34442 24.6319 9.4977C24.7678 9.65098 24.8689 9.83109 24.9286 10.026C24.9881 10.2209 25.0048 10.4261 24.9775 10.6278C24.9243 10.9778 24.7441 11.297 24.4703 11.526C24.1966 11.755 23.8478 11.8784 23.4887 11.8733H19.2626C19.2414 11.8738 19.2207 11.8799 19.2026 11.891C19.1846 11.9021 19.1699 11.9177 19.1602 11.9363C19.1503 11.9549 19.1458 11.9757 19.1469 11.9966C19.148 12.0175 19.1548 12.0377 19.1666 12.0552Z" fill="black"/>
</svg>
