<svg width="268" height="314" viewBox="0 0 268 314" fill="none" xmlns="http://www.w3.org/2000/svg">
<g filter="url(#filter0_b_1007_7751)">
<mask id="path-1-inside-1_1007_7751" fill="white">
<path fill-rule="evenodd" clip-rule="evenodd" d="M268 10C268 4.47715 263.523 0 258 0H10C4.47715 0 0 4.47715 0 10V304C0 309.523 4.47716 314 10 314H258C263.523 314 268 309.523 268 304V10ZM164.987 20.2451C163.114 17.5836 160.064 16 156.809 16H23C17.4772 16 13 20.4772 13 26V253C13 258.523 17.4772 263 23 263H162.69C165.441 263 168.071 264.134 169.96 266.134L181.04 277.866C182.929 279.866 185.559 281 188.31 281H245C250.523 281 255 276.523 255 271V53C255 47.4772 250.523 43 245 43H186.191C182.936 43 179.886 41.4164 178.013 38.7549L164.987 20.2451Z"/>
</mask>
<path fill-rule="evenodd" clip-rule="evenodd" d="M268 10C268 4.47715 263.523 0 258 0H10C4.47715 0 0 4.47715 0 10V304C0 309.523 4.47716 314 10 314H258C263.523 314 268 309.523 268 304V10ZM164.987 20.2451C163.114 17.5836 160.064 16 156.809 16H23C17.4772 16 13 20.4772 13 26V253C13 258.523 17.4772 263 23 263H162.69C165.441 263 168.071 264.134 169.96 266.134L181.04 277.866C182.929 279.866 185.559 281 188.31 281H245C250.523 281 255 276.523 255 271V53C255 47.4772 250.523 43 245 43H186.191C182.936 43 179.886 41.4164 178.013 38.7549L164.987 20.2451Z" fill="url(#paint0_linear_1007_7751)" fill-opacity="0.9"/>
<path d="M178.013 38.7549L178.831 38.1794L178.013 38.7549ZM181.04 277.866L180.313 278.553L181.04 277.866ZM169.96 266.134L170.687 265.447L169.96 266.134ZM164.987 20.2451L164.169 20.8206L164.987 20.2451ZM10 1H258V-1H10V1ZM1 304V10H-1V304H1ZM258 313H10V315H258V313ZM267 10V304H269V10H267ZM23 17H156.809V15H23V17ZM14 253V26H12V253H14ZM162.69 262H23V264H162.69V262ZM181.767 277.18L170.687 265.447L169.233 266.82L180.313 278.553L181.767 277.18ZM245 280H188.31V282H245V280ZM254 53V271H256V53H254ZM186.191 44H245V42H186.191V44ZM164.169 20.8206L177.195 39.3304L178.831 38.1794L165.805 19.6696L164.169 20.8206ZM186.191 42C183.262 42 180.516 40.5747 178.831 38.1794L177.195 39.3304C179.255 42.258 182.611 44 186.191 44V42ZM256 53C256 46.9249 251.075 42 245 42V44C249.971 44 254 48.0294 254 53H256ZM245 282C251.075 282 256 277.075 256 271H254C254 275.971 249.971 280 245 280V282ZM180.313 278.553C182.391 280.753 185.284 282 188.31 282V280C185.834 280 183.468 278.98 181.767 277.18L180.313 278.553ZM162.69 264C165.166 264 167.532 265.02 169.233 266.82L170.687 265.447C168.609 263.247 165.716 262 162.69 262V264ZM12 253C12 259.075 16.9249 264 23 264V262C18.0294 262 14 257.971 14 253H12ZM156.809 17C159.738 17 162.484 18.4253 164.169 20.8206L165.805 19.6696C163.745 16.742 160.389 15 156.809 15V17ZM23 15C16.9249 15 12 19.9249 12 26H14C14 21.0294 18.0294 17 23 17V15ZM258 315C264.075 315 269 310.075 269 304H267C267 308.971 262.971 313 258 313V315ZM-1 304C-1 310.075 3.92488 315 10 315V313C5.02944 313 1 308.971 1 304H-1ZM258 1C262.971 1 267 5.02944 267 10H269C269 3.92487 264.075 -1 258 -1V1ZM10 -1C3.92487 -1 -1 3.92486 -1 10H1C1 5.02943 5.02944 1 10 1V-1Z" fill="black" fill-opacity="0.8" mask="url(#path-1-inside-1_1007_7751)"/>
</g>
<defs>
<filter id="filter0_b_1007_7751" x="-10" y="-10" width="288" height="334" filterUnits="userSpaceOnUse" color-interpolation-filters="sRGB">
<feFlood flood-opacity="0" result="BackgroundImageFix"/>
<feGaussianBlur in="BackgroundImageFix" stdDeviation="5"/>
<feComposite in2="SourceAlpha" operator="in" result="effect1_backgroundBlur_1007_7751"/>
<feBlend mode="normal" in="SourceGraphic" in2="effect1_backgroundBlur_1007_7751" result="shape"/>
</filter>
<linearGradient id="paint0_linear_1007_7751" x1="134" y1="0" x2="134" y2="314" gradientUnits="userSpaceOnUse">
<stop stop-color="#5B25CF"/>
<stop offset="1" stop-color="#4E318D"/>
</linearGradient>
</defs>
</svg>
