<svg width="14" height="8" viewBox="0 0 14 8" fill="none" xmlns="http://www.w3.org/2000/svg">
<path d="M13 1L7.00003 7L1.00003 1H13Z" fill="#FF6667"/>
<path d="M13 1L7.00003 7L1.00003 1H13Z" fill="#39EDFF"/>
<path fill-rule="evenodd" clip-rule="evenodd" d="M0.0761497 0.617317C0.230931 0.243642 0.595567 0 1.00003 0H13C13.4045 0 13.7691 0.243642 13.9239 0.617317C14.0787 0.990991 13.9931 1.42111 13.7071 1.70711L7.70714 7.70711C7.31661 8.09763 6.68345 8.09763 6.29292 7.70711L0.292922 1.70711C0.00692445 1.42111 -0.0786313 0.990991 0.0761497 0.617317ZM3.41424 2L7.00003 5.58579L10.5858 2H3.41424Z" fill="#FF6667"/>
<path fill-rule="evenodd" clip-rule="evenodd" d="M0.0761497 0.617317C0.230931 0.243642 0.595567 0 1.00003 0H13C13.4045 0 13.7691 0.243642 13.9239 0.617317C14.0787 0.990991 13.9931 1.42111 13.7071 1.70711L7.70714 7.70711C7.31661 8.09763 6.68345 8.09763 6.29292 7.70711L0.292922 1.70711C0.00692445 1.42111 -0.0786313 0.990991 0.0761497 0.617317ZM3.41424 2L7.00003 5.58579L10.5858 2H3.41424Z" fill="#39EDFF"/>
</svg>
