<svg width="20" height="20" viewBox="0 0 20 20" fill="none" xmlns="http://www.w3.org/2000/svg">
<path fill-rule="evenodd" clip-rule="evenodd" d="M2.7032 2.7325C2 3.46417 2 4.64333 2 7V12C2 14.3567 2 15.5358 2.7032 16.2675C3.4056 17 4.5376 17 6.8 17H14.8C15.544 17 15.916 17 16.2208 16.915C16.6279 16.8015 16.9991 16.5783 17.2971 16.2678C17.5951 15.9574 17.8094 15.5707 17.9184 15.1467C18 14.8292 18 14.4417 18 13.6667H13.2C12.8848 13.6667 12.5727 13.602 12.2816 13.4764C11.9904 13.3507 11.7258 13.1666 11.5029 12.9344C11.2801 12.7023 11.1033 12.4267 10.9827 12.1234C10.8621 11.8201 10.8 11.495 10.8 11.1667C10.8 10.8384 10.8621 10.5133 10.9827 10.21C11.1033 9.90664 11.2801 9.63105 11.5029 9.3989C11.7258 9.16675 11.9904 8.9826 12.2816 8.85697C12.5727 8.73133 12.8848 8.66667 13.2 8.66667H18V7C18 4.64333 18 3.46417 17.2968 2.7325C16.5944 2 15.4624 2 13.2 2H6.8C4.5376 2 3.4056 2 2.7032 2.7325ZM6 5.33333C5.78783 5.33333 5.58434 5.42113 5.43431 5.57741C5.28429 5.73369 5.2 5.94565 5.2 6.16667C5.2 6.38768 5.28429 6.59964 5.43431 6.75592C5.58434 6.9122 5.78783 7 6 7H8.4C8.61217 7 8.81566 6.9122 8.96569 6.75592C9.11571 6.59964 9.2 6.38768 9.2 6.16667C9.2 5.94565 9.11571 5.73369 8.96569 5.57741C8.81566 5.42113 8.61217 5.33333 8.4 5.33333H6Z" fill="white"/>
<path d="M15.3332 11.1667H14.4443H15.3332Z" fill="white"/>
<path d="M15.3332 11.1667H14.4443" stroke="white" stroke-width="2" stroke-linecap="round"/>
</svg>
