<svg width="20" height="20" viewBox="0 0 20 20" fill="none" xmlns="http://www.w3.org/2000/svg">
<path d="M14.2509 3H16.6362L11.4251 8.93026L17.5556 17H12.7554L8.99578 12.1057L4.6939 17H2.30717L7.88101 10.6569L2 3H6.922L10.3204 7.47354L14.2509 3ZM13.4138 15.5785H14.7355L6.20381 4.34687H4.78548L13.4138 15.5785Z" fill="white"/>
<path d="M14.2509 3H16.6362L11.4251 8.93026L17.5556 17H12.7554L8.99578 12.1057L4.6939 17H2.30717L7.88101 10.6569L2 3H6.922L10.3204 7.47354L14.2509 3ZM13.4138 15.5785H14.7355L6.20381 4.34687H4.78548L13.4138 15.5785Z" fill="white"/>
</svg>
